<svg xmlns="http://www.w3.org/2000/svg" version="1.1" xmlns:xlink="http://www.w3.org/1999/xlink" xmlns:svgjs="http://svgjs.com/svgjs" width="1440" height="560" preserveAspectRatio="none" viewBox="0 0 1440 560"><g mask="url(&quot;#SvgjsMask1015&quot;)" fill="none"><rect width="1440" height="560" x="0" y="0" fill="#0e2a47"></rect><path d="M594.67 542.6L625.26 542.6L625.26 593.18L594.67 593.18z" stroke="#037b0b"></path><path d="M1073.55 342.54a7 7 0 1 0-13.01 5.18z" stroke="#037b0b"></path><path d="M624.71 5.06 a38.64 38.64 0 1 0 77.28 0 a38.64 38.64 0 1 0 -77.28 0z" fill="#037b0b"></path><path d="M1018.05 35.25L1050.07 35.25L1050.07 67.27L1018.05 67.27z" stroke="#e73635"></path><path d="M516.95 292.42 a46.88 46.88 0 1 0 93.76 0 a46.88 46.88 0 1 0 -93.76 0z" fill="#d3b714"></path><path d="M1284.19 406.11a1.24 1.24 0 1 0-2.23 1.07z" fill="#e73635"></path><path d="M1118.74 469.08L1136.13 469.08L1136.13 486.47L1118.74 486.47z" stroke="#d3b714"></path><path d="M904.15 204.37L915.38 204.37L915.38 215.6L904.15 215.6z" stroke="#d3b714"></path><path d="M689.2 139.23a51.99 51.99 0 1 0-82.93 62.74z" fill="#037b0b"></path><path d="M1118.01 288.78L1164.26 288.78L1164.26 344.09L1118.01 344.09z" stroke="#037b0b"></path><path d="M668.36 274.62a31.01 31.01 0 1 0 46.6-40.91z" stroke="#e73635"></path><path d="M625.35 426.16L678.66 426.16L678.66 472.12L625.35 472.12z" stroke="#037b0b"></path><path d="M19.91 138.59 a33.91 33.91 0 1 0 67.82 0 a33.91 33.91 0 1 0 -67.82 0z" fill="#d3b714"></path><path d="M820.87 473.42 a28.26 28.26 0 1 0 56.52 0 a28.26 28.26 0 1 0 -56.52 0z" fill="#037b0b"></path><path d="M251.7 360.66 a5.05 5.05 0 1 0 10.1 0 a5.05 5.05 0 1 0 -10.1 0z" stroke="#d3b714"></path><path d="M916.43 470.23L928.18 470.23L928.18 485.21L916.43 485.21z" stroke="#e73635"></path><path d="M419.36 89.09L434.95 89.09L434.95 104.68L419.36 104.68z" fill="#037b0b"></path><path d="M883.3 458.66a30.78 30.78 0 1 0 53.6-30.29z" stroke="#037b0b"></path><path d="M631.31 47.86L638.48 47.86L638.48 97.15L631.31 97.15z" fill="#037b0b"></path><path d="M153.96 292.11L188.24 292.11L188.24 326.39L153.96 326.39z" stroke="#e73635"></path><path d="M388.62 118.95 a23.63 23.63 0 1 0 47.26 0 a23.63 23.63 0 1 0 -47.26 0z" stroke="#037b0b"></path><path d="M246.18 533.11L253.44 533.11L253.44 540.37L246.18 540.37z" fill="#d3b714"></path><path d="M1412.2 347.18L1440.9 347.18L1440.9 375.88L1412.2 375.88z" fill="#d3b714"></path><path d="M1092.23 29.8L1107.38 29.8L1107.38 44.95L1092.23 44.95z" stroke="#037b0b"></path><path d="M464.91 156.41a22.86 22.86 0 1 0-41.01 20.21z" stroke="#d3b714"></path><path d="M1173.68 223.26L1192.63 223.26L1192.63 242.21L1173.68 242.21z" fill="#037b0b"></path><path d="M678.3 231.74L696.22 231.74L696.22 249.66L678.3 249.66z" fill="#e73635"></path><path d="M772.6 285.98 a55.2 55.2 0 1 0 110.4 0 a55.2 55.2 0 1 0 -110.4 0z" stroke="#037b0b"></path><path d="M1042.41 89.08 a46.49 46.49 0 1 0 92.98 0 a46.49 46.49 0 1 0 -92.98 0z" fill="#e73635"></path><path d="M1263.27 336.97L1310.58 336.97L1310.58 340.23L1263.27 340.23z" stroke="#d3b714"></path><path d="M812.96 30.16L861.23 30.16L861.23 78.43L812.96 78.43z" stroke="#e73635"></path><path d="M709.56 133.18L752.01 133.18L752.01 154.84L709.56 154.84z" fill="#037b0b"></path><path d="M563.03 367.58a55.73 55.73 0 1 0-110.7-13z" stroke="#e73635"></path></g><defs><mask id="SvgjsMask1015"><rect width="1440" height="560" fill="#ffffff"></rect></mask></defs></svg>