<svg xmlns="http://www.w3.org/2000/svg" version="1.1" xmlns:xlink="http://www.w3.org/1999/xlink" xmlns:svgjs="http://svgjs.com/svgjs" width="1440" height="560" preserveAspectRatio="none" viewBox="0 0 1440 560"><g mask="url(&quot;#SvgjsMask1019&quot;)" fill="none"><rect width="1440" height="560" x="0" y="0" fill="#0e2a47"></rect><path d="M119.83 69.06a47.2 47.2 0 1 0 79.92-50.24z" fill="#037b0b"></path><path d="M911.07 196.68 a39.03 39.03 0 1 0 78.06 0 a39.03 39.03 0 1 0 -78.06 0z" stroke="#e73635"></path><path d="M809.34 242.38L836.5 242.38L836.5 283.94L809.34 283.94z" fill="#e73635"></path><path d="M1204.05 380.8L1224.07 380.8L1224.07 409.52L1204.05 409.52z" stroke="#e73635"></path><path d="M155.08 185.3L170.15 185.3L170.15 190.23L155.08 190.23z" fill="#d3b714"></path><path d="M951.6 502.11a19.56 19.56 0 1 0-38.83-4.81z" fill="#d3b714"></path><path d="M619.39 0.23 a39.04 39.04 0 1 0 78.08 0 a39.04 39.04 0 1 0 -78.08 0z" stroke="#e73635"></path><path d="M742.58 186.3L756.82 186.3L756.82 200.54L742.58 200.54z" fill="#037b0b"></path><path d="M1101.64 254.83L1126.6 254.83L1126.6 279.79L1101.64 279.79z" fill="#d3b714"></path><path d="M615.84 481.12L671.47 481.12L671.47 536.75L615.84 536.75z" stroke="#d3b714"></path><path d="M1304.51 230.94L1346.71 230.94L1346.71 240.35L1304.51 240.35z" fill="#d3b714"></path><path d="M1274.96 383.68 a9.51 9.51 0 1 0 19.02 0 a9.51 9.51 0 1 0 -19.02 0z" stroke="#d3b714"></path><path d="M1003.85 499.13L1025.5 499.13L1025.5 549.25L1003.85 549.25z" fill="#037b0b"></path><path d="M1092.42 239.43 a35.34 35.34 0 1 0 70.68 0 a35.34 35.34 0 1 0 -70.68 0z" fill="#e73635"></path><path d="M1280.81 349.06a2.35 2.35 0 1 0-3.25-3.39z" fill="#d3b714"></path><path d="M1420.58 529.61 a13.55 13.55 0 1 0 27.1 0 a13.55 13.55 0 1 0 -27.1 0z" fill="#e73635"></path><path d="M321.62 451.83L376.87 451.83L376.87 503.36L321.62 503.36z" stroke="#037b0b"></path><path d="M921.72 178.56L940.25 178.56L940.25 202.1L921.72 202.1z" stroke="#037b0b"></path><path d="M1143.32 282L1191.08 282L1191.08 282.05L1143.32 282.05z" fill="#d3b714"></path><path d="M471.66 174.17a31.24 31.24 0 1 0-37.28 50.14z" stroke="#d3b714"></path><path d="M1000.45 260.22 a6.27 6.27 0 1 0 12.54 0 a6.27 6.27 0 1 0 -12.54 0z" stroke="#d3b714"></path><path d="M861.96 359.51L874.41 359.51L874.41 374.18L861.96 374.18z" stroke="#037b0b"></path><path d="M1031.22 329.75L1078.16 329.75L1078.16 376.69L1031.22 376.69z" stroke="#d3b714"></path><path d="M1129.83 338.79 a3.25 3.25 0 1 0 6.5 0 a3.25 3.25 0 1 0 -6.5 0z" stroke="#037b0b"></path><path d="M314.14 42.96L319.1 42.96L319.1 47.92L314.14 47.92z" stroke="#e73635"></path><path d="M121.96 485.55 a11.84 11.84 0 1 0 23.68 0 a11.84 11.84 0 1 0 -23.68 0z" stroke="#e73635"></path><path d="M177.1 371.2 a0.93 0.93 0 1 0 1.86 0 a0.93 0.93 0 1 0 -1.86 0z" fill="#037b0b"></path><path d="M913.89 219.09a53.3 53.3 0 1 0-71.23 79.31z" stroke="#e73635"></path><path d="M1220.16 59.1a6.53 6.53 0 1 0-3.8-12.49z" stroke="#d3b714"></path><path d="M629.21 468.17 a42.03 42.03 0 1 0 84.06 0 a42.03 42.03 0 1 0 -84.06 0z" fill="#d3b714"></path><path d="M1367.11 132.02L1415.1 132.02L1415.1 152.79L1367.11 152.79z" fill="#d3b714"></path><path d="M1379.71 277.04a36.24 36.24 0 1 0 48.84 53.56z" fill="#d3b714"></path><path d="M798.04 262.85 a15.3 15.3 0 1 0 30.6 0 a15.3 15.3 0 1 0 -30.6 0z" fill="#037b0b"></path></g><defs><mask id="SvgjsMask1019"><rect width="1440" height="560" fill="#ffffff"></rect></mask></defs></svg>