<svg xmlns="http://www.w3.org/2000/svg" version="1.1" xmlns:xlink="http://www.w3.org/1999/xlink" xmlns:svgjs="http://svgjs.com/svgjs" width="1440" height="560" preserveAspectRatio="none" viewBox="0 0 1440 560"><g mask="url(&quot;#SvgjsMask1021&quot;)" fill="none"><rect width="1440" height="560" x="0" y="0" fill="#0e2a47"></rect><path d="M817 556.17 a48.71 48.71 0 1 0 97.42 0 a48.71 48.71 0 1 0 -97.42 0z" stroke="#e73635"></path><path d="M26.82 82.01 a25.07 25.07 0 1 0 50.14 0 a25.07 25.07 0 1 0 -50.14 0z" fill="#e73635"></path><path d="M879.94 270.99L885.15 270.99L885.15 298.59L879.94 298.59z" stroke="#d3b714"></path><path d="M1092.3 486.44L1137.66 486.44L1137.66 538.25L1092.3 538.25z" stroke="#037b0b"></path><path d="M1334.36 165.56L1385.92 165.56L1385.92 217.12L1334.36 217.12z" stroke="#037b0b"></path><path d="M1165.94 555.7L1178.46 555.7L1178.46 568.22L1165.94 568.22z" fill="#e73635"></path><path d="M86.2 94.85a0.63 0.63 0 1 0 0.54-1.14z" stroke="#037b0b"></path><path d="M462.74 223.6L516.82 223.6L516.82 253.34L462.74 253.34z" stroke="#e73635"></path><path d="M333.85 492.63L387.08 492.63L387.08 496.68L333.85 496.68z" stroke="#e73635"></path><path d="M623.54 107.59L634.23 107.59L634.23 118.28L623.54 118.28z" stroke="#037b0b"></path><path d="M1118.22 262.95L1139.5 262.95L1139.5 302.57L1118.22 302.57z" stroke="#037b0b"></path><path d="M71.71 469.13L122.95 469.13L122.95 514.82L71.71 514.82z" stroke="#037b0b"></path><path d="M1224.61 362.77 a37.74 37.74 0 1 0 75.48 0 a37.74 37.74 0 1 0 -75.48 0z" stroke="#e73635"></path><path d="M956.22 472.18L986.37 472.18L986.37 494.46L956.22 494.46z" stroke="#d3b714"></path><path d="M306.54 420.27L346.02 420.27L346.02 430.62L306.54 430.62z" stroke="#d3b714"></path><path d="M1212.06 516.77 a33.16 33.16 0 1 0 66.32 0 a33.16 33.16 0 1 0 -66.32 0z" stroke="#e73635"></path><path d="M465.03 482.46L502.04 482.46L502.04 519.47L465.03 519.47z" stroke="#d3b714"></path><path d="M87.3 468.71L118.12 468.71L118.12 508.36L87.3 508.36z" fill="#e73635"></path><path d="M824.4 230.43L850.06 230.43L850.06 263.68L824.4 263.68z" stroke="#037b0b"></path><path d="M262.75 115.92a30.03 30.03 0 1 0 3.96 59.93z" stroke="#e73635"></path><path d="M1262.82 38a26.66 26.66 0 1 0 38.44-36.95z" stroke="#e73635"></path><path d="M334.53 465.88L359.92 465.88L359.92 500.25L334.53 500.25z" fill="#e73635"></path><path d="M1428.94 243.14a9.27 9.27 0 1 0 6.77 17.26z" stroke="#d3b714"></path><path d="M431.71 554.15L464.09 554.15L464.09 596.78L431.71 596.78z" stroke="#d3b714"></path><path d="M1023.74 125.4a28.22 28.22 0 1 0-35.69 43.72z" stroke="#e73635"></path><path d="M1175.38 548.41 a28.91 28.91 0 1 0 57.82 0 a28.91 28.91 0 1 0 -57.82 0z" fill="#d3b714"></path><path d="M1306.45 264.7 a48.42 48.42 0 1 0 96.84 0 a48.42 48.42 0 1 0 -96.84 0z" stroke="#e73635"></path><path d="M1311.47 197.02a2.79 2.79 0 1 0-3.37 4.45z" stroke="#e73635"></path><path d="M1012.86 155.15L1051.35 155.15L1051.35 193.64L1012.86 193.64z" fill="#d3b714"></path><path d="M871.7 325.67L894.66 325.67L894.66 378L871.7 378z" fill="#037b0b"></path><path d="M788.12 514.6a37.97 37.97 0 1 0 28.1-70.55z" fill="#d3b714"></path><path d="M111.7 368.47a29.65 29.65 0 1 0-14.52 57.5z" fill="#e73635"></path><path d="M1099.97 61.22L1137.68 61.22L1137.68 98.93L1099.97 98.93z" stroke="#e73635"></path></g><defs><mask id="SvgjsMask1021"><rect width="1440" height="560" fill="#ffffff"></rect></mask></defs></svg>