<svg xmlns="http://www.w3.org/2000/svg" version="1.1" xmlns:xlink="http://www.w3.org/1999/xlink" xmlns:svgjs="http://svgjs.com/svgjs" width="1440" height="560" preserveAspectRatio="none" viewBox="0 0 1440 560"><g mask="url(&quot;#SvgjsMask1011&quot;)" fill="none"><rect width="1440" height="560" x="0" y="0" fill="#0e2a47"></rect><path d="M522.75 357.64L528.48 357.64L528.48 380.15L522.75 380.15z" stroke="#d3b714"></path><path d="M783.33 218.32 a34.68 34.68 0 1 0 69.36 0 a34.68 34.68 0 1 0 -69.36 0z" fill="#d3b714"></path><path d="M324.11 548.56a20.65 20.65 0 1 0 40.38-8.64z" stroke="#d3b714"></path><path d="M51.3 420.93a30.27 30.27 0 1 0-9.11 59.85z" stroke="#e73635"></path><path d="M1243.13 209.81L1280.18 209.81L1280.18 239.19L1243.13 239.19z" fill="#e73635"></path><path d="M566.04 30.21 a53.66 53.66 0 1 0 107.32 0 a53.66 53.66 0 1 0 -107.32 0z" stroke="#d3b714"></path><path d="M394.48 523.28L446.18 523.28L446.18 574.98L394.48 574.98z" fill="#e73635"></path><path d="M122.04 337.66L153.37 337.66L153.37 368.99L122.04 368.99z" fill="#d3b714"></path><path d="M570.59 401.26 a35.14 35.14 0 1 0 70.28 0 a35.14 35.14 0 1 0 -70.28 0z" stroke="#d3b714"></path><path d="M484.99 466.66L533.05 466.66L533.05 514.72L484.99 514.72z" fill="#d3b714"></path><path d="M437.02 66.42L447.99 66.42L447.99 107.47L437.02 107.47z" stroke="#e73635"></path><path d="M693.64 260.82 a53.84 53.84 0 1 0 107.68 0 a53.84 53.84 0 1 0 -107.68 0z" stroke="#037b0b"></path><path d="M1126.29 59.92L1164.94 59.92L1164.94 87.89L1126.29 87.89z" stroke="#d3b714"></path><path d="M582.63 273.82 a30.29 30.29 0 1 0 60.58 0 a30.29 30.29 0 1 0 -60.58 0z" stroke="#e73635"></path><path d="M369.51 212.78a0.96 0.96 0 1 0-1.53 1.16z" stroke="#d3b714"></path><path d="M424.37 515.03a25.91 25.91 0 1 0-29.58 42.55z" fill="#d3b714"></path><path d="M380.63 296.75L418.7 296.75L418.7 334.82L380.63 334.82z" fill="#d3b714"></path><path d="M106.5 250.95 a24.59 24.59 0 1 0 49.18 0 a24.59 24.59 0 1 0 -49.18 0z" fill="#e73635"></path><path d="M1020.97 182.06L1022.73 182.06L1022.73 186.36L1020.97 186.36z" fill="#037b0b"></path><path d="M1277.57 400.27a3.64 3.64 0 1 0 5.08-5.22z" stroke="#037b0b"></path><path d="M1240.01 350.16 a12.54 12.54 0 1 0 25.08 0 a12.54 12.54 0 1 0 -25.08 0z" fill="#d3b714"></path><path d="M876.07 476.67L895.08 476.67L895.08 523.87L876.07 523.87z" stroke="#037b0b"></path><path d="M1294.97 80.91L1320.87 80.91L1320.87 96.43L1294.97 96.43z" fill="#e73635"></path><path d="M1060.57 514.69L1092.55 514.69L1092.55 546.67L1060.57 546.67z" fill="#037b0b"></path><path d="M1421.85 324.48L1476.03 324.48L1476.03 379.78L1421.85 379.78z" stroke="#d3b714"></path><path d="M652.73 382.98 a27.42 27.42 0 1 0 54.84 0 a27.42 27.42 0 1 0 -54.84 0z" stroke="#d3b714"></path><path d="M1108.74 476.98L1124.96 476.98L1124.96 493.2L1108.74 493.2z" stroke="#d3b714"></path><path d="M1272.23 348.97a40.6 40.6 0 1 0-33.26-74.08z" fill="#e73635"></path><path d="M586.65 1.3 a48.3 48.3 0 1 0 96.6 0 a48.3 48.3 0 1 0 -96.6 0z" fill="#d3b714"></path><path d="M74.31 114.55L112.21 114.55L112.21 152.45L74.31 152.45z" stroke="#037b0b"></path><path d="M452.42 193.03L467.21 193.03L467.21 218.22L452.42 218.22z" fill="#d3b714"></path><path d="M952.67 121.99L978.47 121.99L978.47 147.79L952.67 147.79z" stroke="#037b0b"></path><path d="M1028.49 450.42L1035.35 450.42L1035.35 503.82L1028.49 503.82z" fill="#037b0b"></path></g><defs><mask id="SvgjsMask1011"><rect width="1440" height="560" fill="#ffffff"></rect></mask></defs></svg>