<svg xmlns="http://www.w3.org/2000/svg" version="1.1" xmlns:xlink="http://www.w3.org/1999/xlink" xmlns:svgjs="http://svgjs.com/svgjs" width="1440" height="560" preserveAspectRatio="none" viewBox="0 0 1440 560"><g mask="url(&quot;#SvgjsMask1032&quot;)" fill="none"><rect width="1440" height="560" x="0" y="0" fill="#0e2a47"></rect><path d="M228.81 453.71a38.13 38.13 0 1 0-60.03-47.03z" stroke="#037b0b"></path><path d="M1243.39 64.95L1292.04 64.95L1292.04 113.6L1243.39 113.6z" stroke="#d3b714"></path><path d="M268.41 456.99L293.6 456.99L293.6 478.29L268.41 478.29z" stroke="#037b0b"></path><path d="M1005.61-2.96a49.75 49.75 0 1 0 28.26 95.4z" fill="#d3b714"></path><path d="M550.86 377.64 a15.03 15.03 0 1 0 30.06 0 a15.03 15.03 0 1 0 -30.06 0z" stroke="#037b0b"></path><path d="M738.63 290.18L775.64 290.18L775.64 327.19L738.63 327.19z" fill="#037b0b"></path><path d="M214.76 174.11L220.05 174.11L220.05 189.18L214.76 189.18z" fill="#037b0b"></path><path d="M986.27 290.82L1018.5 290.82L1018.5 323.05L986.27 323.05z" fill="#d3b714"></path><path d="M1383.3 440.26a15.84 15.84 0 1 0-27.06-16.47z" fill="#e73635"></path><path d="M927.09 499.22L976.9 499.22L976.9 549.03L927.09 549.03z" stroke="#e73635"></path><path d="M1320.5 99.75a46.72 46.72 0 1 0-88.31-30.54z" fill="#037b0b"></path><path d="M1331.37 371.91L1382.16 371.91L1382.16 405.61L1331.37 405.61z" stroke="#d3b714"></path><path d="M950.81 219.5a20.01 20.01 0 1 0 39.86-3.56z" stroke="#e73635"></path><path d="M78.86 146.67 a28.82 28.82 0 1 0 57.64 0 a28.82 28.82 0 1 0 -57.64 0z" stroke="#d3b714"></path><path d="M701.85 492.47L755.04 492.47L755.04 545.66L701.85 545.66z" fill="#037b0b"></path><path d="M113.89 351.75a43.9 43.9 0 1 0 58.85-65.16z" fill="#d3b714"></path><path d="M681.64 496.9L729.91 496.9L729.91 542.7L681.64 542.7z" fill="#d3b714"></path><path d="M708.84 67.72 a42.96 42.96 0 1 0 85.92 0 a42.96 42.96 0 1 0 -85.92 0z" stroke="#e73635"></path><path d="M829.88 292.86 a29.1 29.1 0 1 0 58.2 0 a29.1 29.1 0 1 0 -58.2 0z" stroke="#e73635"></path><path d="M54.15 504.63L71.79 504.63L71.79 522.27L54.15 522.27z" stroke="#037b0b"></path><path d="M1131.69 307.17L1142.9 307.17L1142.9 318.38L1131.69 318.38z" stroke="#d3b714"></path><path d="M130.68 360.04a10.31 10.31 0 1 0-1.72-20.54z" stroke="#037b0b"></path><path d="M292.16 488.33L313.03 488.33L313.03 509.2L292.16 509.2z" stroke="#d3b714"></path><path d="M-14.12 168.4 a32.6 32.6 0 1 0 65.2 0 a32.6 32.6 0 1 0 -65.2 0z" fill="#e73635"></path><path d="M185.05 217.11 a53.67 53.67 0 1 0 107.34 0 a53.67 53.67 0 1 0 -107.34 0z" fill="#037b0b"></path><path d="M389.21 7.84L394.39 7.84L394.39 24.75L389.21 24.75z" fill="#e73635"></path><path d="M1152.96 128.23 a50.65 50.65 0 1 0 101.3 0 a50.65 50.65 0 1 0 -101.3 0z" stroke="#e73635"></path><path d="M174.08 534.62L223.99 534.62L223.99 584.53L174.08 584.53z" fill="#d3b714"></path><path d="M1269.95 19.81 a4.91 4.91 0 1 0 9.82 0 a4.91 4.91 0 1 0 -9.82 0z" stroke="#037b0b"></path><path d="M491.51 496.18a19.25 19.25 0 1 0 10.03-37.17z" fill="#e73635"></path><path d="M618.8 51.92a23.5 23.5 0 1 0-32.93 33.52z" stroke="#e73635"></path><path d="M260.58 74.61L270.5 74.61L270.5 84.53L260.58 84.53z" fill="#e73635"></path><path d="M793.81 280.93L843.87 280.93L843.87 301.89L793.81 301.89z" stroke="#d3b714"></path></g><defs><mask id="SvgjsMask1032"><rect width="1440" height="560" fill="#ffffff"></rect></mask></defs></svg>