<svg xmlns="http://www.w3.org/2000/svg" version="1.1" xmlns:xlink="http://www.w3.org/1999/xlink" xmlns:svgjs="http://svgjs.com/svgjs" width="1440" height="560" preserveAspectRatio="none" viewBox="0 0 1440 560"><g mask="url(&quot;#SvgjsMask1009&quot;)" fill="none"><rect width="1440" height="560" x="0" y="0" fill="#0e2a47"></rect><path d="M319.79 409.06L324.79 409.06L324.79 414.06L319.79 414.06z" fill="#d3b714"></path><path d="M238.19 392.83L283.16 392.83L283.16 437.8L238.19 437.8z" fill="#e73635"></path><path d="M361.78 157.12 a44.02 44.02 0 1 0 88.04 0 a44.02 44.02 0 1 0 -88.04 0z" stroke="#037b0b"></path><path d="M1145.22 273.49 a30.22 30.22 0 1 0 60.44 0 a30.22 30.22 0 1 0 -60.44 0z" fill="#e73635"></path><path d="M44.14 278.96 a15.91 15.91 0 1 0 31.82 0 a15.91 15.91 0 1 0 -31.82 0z" fill="#e73635"></path><path d="M992.39 269.88L1042.02 269.88L1042.02 319.51L992.39 319.51z" stroke="#037b0b"></path><path d="M1078.21 412.19a23.28 23.28 0 1 0 36.97 28.3z" stroke="#d3b714"></path><path d="M417.05 316.07a24.14 24.14 0 1 0-48.03-4.88z" stroke="#d3b714"></path><path d="M1192.23 217.8 a46.32 46.32 0 1 0 92.64 0 a46.32 46.32 0 1 0 -92.64 0z" fill="#037b0b"></path><path d="M1196.71 103.61L1246.75 103.61L1246.75 153.65L1196.71 153.65z" fill="#d3b714"></path><path d="M498.08 198.47 a39.04 39.04 0 1 0 78.08 0 a39.04 39.04 0 1 0 -78.08 0z" stroke="#e73635"></path><path d="M495.38 437.83L499.66 437.83L499.66 459.61L495.38 459.61z" stroke="#037b0b"></path><path d="M901.01 157.86L947.73 157.86L947.73 204.58L901.01 204.58z" fill="#037b0b"></path><path d="M1143.23 236.43 a15.85 15.85 0 1 0 31.7 0 a15.85 15.85 0 1 0 -31.7 0z" fill="#d3b714"></path><path d="M333.63 82.17L367.67 82.17L367.67 116.21L333.63 116.21z" fill="#037b0b"></path><path d="M1311.62 229.35a38.96 38.96 0 1 0 15.84-76.29z" fill="#037b0b"></path><path d="M316 64.82L320.6 64.82L320.6 68.12L316 68.12z" fill="#d3b714"></path><path d="M803.28 198.94 a2.41 2.41 0 1 0 4.82 0 a2.41 2.41 0 1 0 -4.82 0z" fill="#037b0b"></path><path d="M692.99 68.57a46.52 46.52 0 1 0-12.65 92.18z" stroke="#e73635"></path><path d="M341.84 67.08L364.5 67.08L364.5 89.74L341.84 89.74z" stroke="#037b0b"></path><path d="M130.55 124.38a19.27 19.27 0 1 0 21.18-32.2z" fill="#d3b714"></path><path d="M1038.77 367.4 a38.07 38.07 0 1 0 76.14 0 a38.07 38.07 0 1 0 -76.14 0z" fill="#d3b714"></path><path d="M1124.85 105.55L1177.9 105.55L1177.9 158.6L1124.85 158.6z" fill="#d3b714"></path><path d="M256.03 320.73a15.24 15.24 0 1 0-28.86-9.8z" fill="#037b0b"></path><path d="M590.85 140.78a25.11 25.11 0 1 0-11.13-48.97z" fill="#037b0b"></path><path d="M288.95 146.13a30.63 30.63 0 1 0-60.63-8.78z" stroke="#d3b714"></path><path d="M1019.35 273.44a37.3 37.3 0 1 0 16.74 72.7z" fill="#e73635"></path><path d="M1399.3 160.59L1429.34 160.59L1429.34 190.63L1399.3 190.63z" fill="#e73635"></path><path d="M799.94 175.46 a0.02 0.02 0 1 0 0.04 0 a0.02 0.02 0 1 0 -0.04 0z" fill="#e73635"></path><path d="M683.67 372.13L712.5 372.13L712.5 400.96L683.67 400.96z" fill="#e73635"></path><path d="M1193.33 213.59L1217.37 213.59L1217.37 221.18L1193.33 221.18z" fill="#e73635"></path><path d="M438.16 42.74a0.67 0.67 0 1 0 1.34 0.12z" fill="#e73635"></path><path d="M916.65 291.91L948.49 291.91L948.49 323.75L916.65 323.75z" fill="#037b0b"></path></g><defs><mask id="SvgjsMask1009"><rect width="1440" height="560" fill="#ffffff"></rect></mask></defs></svg>