<svg xmlns="http://www.w3.org/2000/svg" version="1.1" xmlns:xlink="http://www.w3.org/1999/xlink" xmlns:svgjs="http://svgjs.com/svgjs" width="1440" height="560" preserveAspectRatio="none" viewBox="0 0 1440 560"><g mask="url(&quot;#SvgjsMask1035&quot;)" fill="none"><rect width="1440" height="560" x="0" y="0" fill="#0e2a47"></rect><path d="M1173.81 27.94L1202.8 27.94L1202.8 56.93L1173.81 56.93z" stroke="#e73635"></path><path d="M1225.08 176.31L1251.36 176.31L1251.36 202.59L1225.08 202.59z" stroke="#037b0b"></path><path d="M157.91 201.61 a16.45 16.45 0 1 0 32.9 0 a16.45 16.45 0 1 0 -32.9 0z" fill="#e73635"></path><path d="M903.94 120.24L921.71 120.24L921.71 153.23L903.94 153.23z" fill="#d3b714"></path><path d="M1395.62 533.48L1404.03 533.48L1404.03 556.11L1395.62 556.11z" stroke="#037b0b"></path><path d="M521.73 62.8L552.16 62.8L552.16 93.23L521.73 93.23z" stroke="#037b0b"></path><path d="M1182 290.9L1202.69 290.9L1202.69 337.33L1182 337.33z" fill="#d3b714"></path><path d="M311.11 70.52L325.5 70.52L325.5 120.15L311.11 120.15z" fill="#d3b714"></path><path d="M317.12 272.69L346.99 272.69L346.99 302.56L317.12 302.56z" fill="#e73635"></path><path d="M280.29 494.63L327.5 494.63L327.5 535.51L280.29 535.51z" stroke="#d3b714"></path><path d="M251.08 435.9a35.8 35.8 0 1 0 42.51 57.62z" stroke="#037b0b"></path><path d="M873.38 467.48a2.7 2.7 0 1 0 2.43-4.82z" stroke="#d3b714"></path><path d="M209.63 145.23L212.35 145.23L212.35 183.46L209.63 183.46z" stroke="#d3b714"></path><path d="M741.41 269.91a55.12 55.12 0 1 0-85.38 69.73z" fill="#d3b714"></path><path d="M1226.64 19.84L1263.99 19.84L1263.99 48.38L1226.64 48.38z" stroke="#037b0b"></path><path d="M1095.83 81.48L1102.3 81.48L1102.3 87.95L1095.83 87.95z" stroke="#d3b714"></path><path d="M1006.29 134.01 a28.53 28.53 0 1 0 57.06 0 a28.53 28.53 0 1 0 -57.06 0z" fill="#e73635"></path><path d="M1100.65 540.67L1152.48 540.67L1152.48 592.5L1100.65 592.5z" fill="#e73635"></path><path d="M141 172.27L160.69 172.27L160.69 202.28L141 202.28z" stroke="#d3b714"></path><path d="M275.46 225.49a12.06 12.06 0 1 0 23.4 5.86z" fill="#037b0b"></path><path d="M86.46 11.32L111.34 11.32L111.34 36.2L86.46 36.2z" stroke="#d3b714"></path><path d="M957.1 551.43a11.21 11.21 0 1 0 21.71-5.6z" stroke="#d3b714"></path><path d="M1059.8 258.11a28.81 28.81 0 1 0-11.65-56.43z" fill="#e73635"></path><path d="M1290.16 63.09 a19.07 19.07 0 1 0 38.14 0 a19.07 19.07 0 1 0 -38.14 0z" fill="#e73635"></path><path d="M1241.03 528.91L1241.78 528.91L1241.78 529.66L1241.03 529.66z" fill="#e73635"></path><path d="M602.91 487.19 a54.63 54.63 0 1 0 109.26 0 a54.63 54.63 0 1 0 -109.26 0z" fill="#d3b714"></path><path d="M960.77 42.81L1001.83 42.81L1001.83 83.87L960.77 83.87z" fill="#d3b714"></path><path d="M1138.75 132.76L1186.35 132.76L1186.35 188.03L1138.75 188.03z" stroke="#e73635"></path><path d="M348 461.28a11.8 11.8 0 1 0-22.77 6.21z" fill="#037b0b"></path><path d="M1226.48 191.36 a20.15 20.15 0 1 0 40.3 0 a20.15 20.15 0 1 0 -40.3 0z" stroke="#037b0b"></path><path d="M70.19 184.64 a40.68 40.68 0 1 0 81.36 0 a40.68 40.68 0 1 0 -81.36 0z" stroke="#e73635"></path><path d="M1003.07 146.56 a53.45 53.45 0 1 0 106.9 0 a53.45 53.45 0 1 0 -106.9 0z" fill="#e73635"></path><path d="M1192.19 382.3L1216.56 382.3L1216.56 406.67L1192.19 406.67z" stroke="#037b0b"></path></g><defs><mask id="SvgjsMask1035"><rect width="1440" height="560" fill="#ffffff"></rect></mask></defs></svg>