<svg xmlns="http://www.w3.org/2000/svg" version="1.1" xmlns:xlink="http://www.w3.org/1999/xlink" xmlns:svgjs="http://svgjs.com/svgjs" width="1440" height="560" preserveAspectRatio="none" viewBox="0 0 1440 560"><g mask="url(&quot;#SvgjsMask1024&quot;)" fill="none"><rect width="1440" height="560" x="0" y="0" fill="#0e2a47"></rect><path d="M383.08 10.08 a24.78 24.78 0 1 0 49.56 0 a24.78 24.78 0 1 0 -49.56 0z" fill="#037b0b"></path><path d="M377.96 468.58 a24.64 24.64 0 1 0 49.28 0 a24.64 24.64 0 1 0 -49.28 0z" stroke="#e73635"></path><path d="M1282.51 455.29L1291.72 455.29L1291.72 459.87L1282.51 459.87z" stroke="#d3b714"></path><path d="M1107.56 320.49L1108.15 320.49L1108.15 324.14L1107.56 324.14z" fill="#d3b714"></path><path d="M53.63 434.57L97.52 434.57L97.52 478.46L53.63 478.46z" stroke="#d3b714"></path><path d="M517.55 278.63L542.33 278.63L542.33 325.72L517.55 325.72z" fill="#e73635"></path><path d="M235.52 329.18L252.76 329.18L252.76 346.42L235.52 346.42z" fill="#037b0b"></path><path d="M689.55 419.04L734.28 419.04L734.28 463.77L689.55 463.77z" fill="#037b0b"></path><path d="M519.65 327.77L569.51 327.77L569.51 377.93L519.65 377.93z" stroke="#e73635"></path><path d="M1229.63 33.05a22.88 22.88 0 1 0 45.7-2.5z" stroke="#d3b714"></path><path d="M969.69 224.9L982.33 224.9L982.33 237.54L969.69 237.54z" stroke="#e73635"></path><path d="M1317.78 538.48a3.2 3.2 0 1 0-5.87 2.57z" fill="#d3b714"></path><path d="M929.36 257.91a24.44 24.44 0 1 0 40.58 27.26z" stroke="#d3b714"></path><path d="M503.32 429.78a46.98 46.98 0 1 0-54.04-76.87z" fill="#037b0b"></path><path d="M1005.19 387.43L1051.1 387.43L1051.1 407.01L1005.19 407.01z" stroke="#037b0b"></path><path d="M1057.6 361.37L1065.36 361.37L1065.36 369.13L1057.6 369.13z" stroke="#037b0b"></path><path d="M254.64 79.63 a49.48 49.48 0 1 0 98.96 0 a49.48 49.48 0 1 0 -98.96 0z" fill="#e73635"></path><path d="M77.42 183.32L83.43 183.32L83.43 189.33L77.42 189.33z" stroke="#d3b714"></path><path d="M1354.53 62.33L1383.04 62.33L1383.04 70.34L1354.53 70.34z" stroke="#e73635"></path><path d="M1350.11 165.13 a3.05 3.05 0 1 0 6.1 0 a3.05 3.05 0 1 0 -6.1 0z" fill="#e73635"></path><path d="M478.98 221.3L484.99 221.3L484.99 230.17L478.98 230.17z" stroke="#e73635"></path><path d="M337.16 334L382.63 334L382.63 369.37L337.16 369.37z" stroke="#d3b714"></path><path d="M300.45 96.66L326.82 96.66L326.82 101.47L300.45 101.47z" stroke="#037b0b"></path><path d="M1434.6 33.58L1454.2 33.58L1454.2 53.18L1434.6 53.18z" stroke="#037b0b"></path><path d="M281.32 476.96L296.66 476.96L296.66 492.3L281.32 492.3z" stroke="#e73635"></path><path d="M221.55 57.58L254.11 57.58L254.11 90.14L221.55 90.14z" fill="#037b0b"></path><path d="M170.75 480.41a2.33 2.33 0 1 0 4.58 0.88z" stroke="#037b0b"></path><path d="M252.81 159.56L257.13 159.56L257.13 172.35L252.81 172.35z" fill="#037b0b"></path><path d="M195.93 157.29L226.3 157.29L226.3 187.66L195.93 187.66z" fill="#037b0b"></path><path d="M950.59 72.36 a39.9 39.9 0 1 0 79.8 0 a39.9 39.9 0 1 0 -79.8 0z" fill="#d3b714"></path><path d="M635.52 401.32a50.25 50.25 0 1 0-85.78-52.37z" fill="#037b0b"></path><path d="M116.15 456.39a24.75 24.75 0 1 0-48.4 10.41z" fill="#037b0b"></path><path d="M1306.06 173.33L1325.39 173.33L1325.39 192.66L1306.06 192.66z" stroke="#037b0b"></path></g><defs><mask id="SvgjsMask1024"><rect width="1440" height="560" fill="#ffffff"></rect></mask></defs></svg>