<svg xmlns="http://www.w3.org/2000/svg" version="1.1" xmlns:xlink="http://www.w3.org/1999/xlink" xmlns:svgjs="http://svgjs.com/svgjs" width="1440" height="560" preserveAspectRatio="none" viewBox="0 0 1440 560"><g mask="url(&quot;#SvgjsMask1005&quot;)" fill="none"><rect width="1440" height="560" x="0" y="0" fill="#0e2a47"></rect><path d="M1050.59 380.47L1070.43 380.47L1070.43 400.31L1050.59 400.31z" fill="#037b0b"></path><path d="M305.45 108.07L320.38 108.07L320.38 159.39L305.45 159.39z" fill="#d3b714"></path><path d="M193.58 38.69L203.57 38.69L203.57 65.58L193.58 65.58z" fill="#e73635"></path><path d="M59.59 440.66 a33.55 33.55 0 1 0 67.1 0 a33.55 33.55 0 1 0 -67.1 0z" stroke="#e73635"></path><path d="M179.4 558.78L210.37 558.78L210.37 589.75L179.4 589.75z" fill="#037b0b"></path><path d="M668.51 525.38L693.5 525.38L693.5 564.77L668.51 564.77z" stroke="#d3b714"></path><path d="M573.66 101.32L598.21 101.32L598.21 155.45L573.66 155.45z" fill="#037b0b"></path><path d="M908.92 3.78L956.67 3.78L956.67 51.53L908.92 51.53z" fill="#d3b714"></path><path d="M211.43 38.11L264.52 38.11L264.52 91.2L211.43 91.2z" stroke="#d3b714"></path><path d="M553.69 480.22L604.94 480.22L604.94 510.65L553.69 510.65z" fill="#037b0b"></path><path d="M58.36 514.27L60.86 514.27L60.86 539.62L58.36 539.62z" stroke="#e73635"></path><path d="M1202.13 410.31a51.2 51.2 0 1 0 8.82-102.02z" stroke="#037b0b"></path><path d="M14.1 367.44L15.62 367.44L15.62 368.96L14.1 368.96z" fill="#d3b714"></path><path d="M854.61 294.53 a31.27 31.27 0 1 0 62.54 0 a31.27 31.27 0 1 0 -62.54 0z" fill="#e73635"></path><path d="M1308.28 93.99L1347.74 93.99L1347.74 97.29L1308.28 97.29z" fill="#d3b714"></path><path d="M242.5 71.38L275.7 71.38L275.7 126.52L242.5 126.52z" fill="#037b0b"></path><path d="M1378.26 419.72a10.42 10.42 0 1 0-16.37 12.89z" stroke="#037b0b"></path><path d="M435.1 446.7L479.23 446.7L479.23 485.01L435.1 485.01z" stroke="#037b0b"></path><path d="M360.15 173.72a40.2 40.2 0 1 0-73.68-32.18z" fill="#d3b714"></path><path d="M736.27 110.1a14.69 14.69 0 1 0-25.18-15.15z" fill="#037b0b"></path><path d="M154.13 51.57L202.9 51.57L202.9 60.81L154.13 60.81z" stroke="#037b0b"></path><path d="M203.67 17.28a18.39 18.39 0 1 0-32.04 18.05z" stroke="#d3b714"></path><path d="M225.66 423.1 a51.78 51.78 0 1 0 103.56 0 a51.78 51.78 0 1 0 -103.56 0z" fill="#037b0b"></path><path d="M781.4 511.05 a28.93 28.93 0 1 0 57.86 0 a28.93 28.93 0 1 0 -57.86 0z" stroke="#d3b714"></path><path d="M388.18 441.49L390.7 441.49L390.7 452.02L388.18 452.02z" stroke="#e73635"></path><path d="M168.17 174.99 a12.26 12.26 0 1 0 24.52 0 a12.26 12.26 0 1 0 -24.52 0z" stroke="#037b0b"></path><path d="M533.97 518.4L568.71 518.4L568.71 539.71L533.97 539.71z" fill="#037b0b"></path><path d="M817.37 26.23a10.1 10.1 0 1 0 1.88 20.11z" stroke="#e73635"></path><path d="M1321.77 57.84L1360.31 57.84L1360.31 96.38L1321.77 96.38z" fill="#d3b714"></path><path d="M775.44 237.49L806.4 237.49L806.4 262.44L775.44 262.44z" fill="#d3b714"></path><path d="M260.27 358.13a41.8 41.8 0 1 0 68.2 48.34z" fill="#e73635"></path><path d="M918.53 200.55 a3.2 3.2 0 1 0 6.4 0 a3.2 3.2 0 1 0 -6.4 0z" fill="#e73635"></path><path d="M1196.58 134.91L1210.46 134.91L1210.46 148.79L1196.58 148.79z" stroke="#d3b714"></path></g><defs><mask id="SvgjsMask1005"><rect width="1440" height="560" fill="#ffffff"></rect></mask></defs></svg>