<svg xmlns="http://www.w3.org/2000/svg" version="1.1" xmlns:xlink="http://www.w3.org/1999/xlink" xmlns:svgjs="http://svgjs.com/svgjs" width="1440" height="560" preserveAspectRatio="none" viewBox="0 0 1440 560"><g mask="url(&quot;#SvgjsMask1000&quot;)" fill="none"><rect width="1440" height="560" x="0" y="0" fill="#0e2a47"></rect><path d="M482.57 32.63L515.26 32.63L515.26 70.25L482.57 70.25z" fill="#037b0b"></path><path d="M471.21 130.43L511.99 130.43L511.99 156.1L471.21 156.1z" fill="#e73635"></path><path d="M900.9 461.61L921.36 461.61L921.36 482.4L900.9 482.4z" stroke="#037b0b"></path><path d="M1149.24 164.34 a3.19 3.19 0 1 0 6.38 0 a3.19 3.19 0 1 0 -6.38 0z" fill="#e73635"></path><path d="M795.08 284.76L840.33 284.76L840.33 338.91L795.08 338.91z" fill="#e73635"></path><path d="M1340.21 53.44a31.35 31.35 0 1 0-16.2-60.57z" fill="#d3b714"></path><path d="M1051.74 258.56L1057.29 258.56L1057.29 264.11L1051.74 264.11z" fill="#d3b714"></path><path d="M1375.53 576.55a19.82 19.82 0 1 0-0.07-39.64z" fill="#037b0b"></path><path d="M256.56 512.63a18.4 18.4 0 1 0-23.69 28.16z" stroke="#e73635"></path><path d="M584.97 542.39 a44.12 44.12 0 1 0 88.24 0 a44.12 44.12 0 1 0 -88.24 0z" fill="#037b0b"></path><path d="M1016.34 35.25a9.87 9.87 0 1 0 19.35-3.9z" stroke="#037b0b"></path><path d="M527.77 424.14 a15.69 15.69 0 1 0 31.38 0 a15.69 15.69 0 1 0 -31.38 0z" fill="#d3b714"></path><path d="M1015.17 80.46L1024.1 80.46L1024.1 89.39L1015.17 89.39z" stroke="#037b0b"></path><path d="M548.52 381.98 a28.65 28.65 0 1 0 57.3 0 a28.65 28.65 0 1 0 -57.3 0z" fill="#d3b714"></path><path d="M172.13 16.63 a47.87 47.87 0 1 0 95.74 0 a47.87 47.87 0 1 0 -95.74 0z" stroke="#037b0b"></path><path d="M989.93 493.74a24.74 24.74 0 1 0 29.48-39.74z" fill="#e73635"></path><path d="M205.9 131.94 a35.27 35.27 0 1 0 70.54 0 a35.27 35.27 0 1 0 -70.54 0z" stroke="#e73635"></path><path d="M1019.71 48.67a50.04 50.04 0 1 0-99.19 13.29z" stroke="#d3b714"></path><path d="M337.68 148.54L367.52 148.54L367.52 178.38L337.68 178.38z" stroke="#e73635"></path><path d="M308.33 144.36L358.34 144.36L358.34 194.37L308.33 194.37z" stroke="#d3b714"></path><path d="M1143.6 91.87L1177.49 91.87L1177.49 139.42L1143.6 139.42z" stroke="#037b0b"></path><path d="M1423.07 379.86L1434.52 379.86L1434.52 408.53L1423.07 408.53z" stroke="#037b0b"></path><path d="M1158.23 428.99a26.93 26.93 0 1 0-46.13 27.8z" stroke="#d3b714"></path><path d="M444.16 150.56L472.7 150.56L472.7 179.1L444.16 179.1z" fill="#037b0b"></path><path d="M934.16 106.95 a10.77 10.77 0 1 0 21.54 0 a10.77 10.77 0 1 0 -21.54 0z" stroke="#d3b714"></path><path d="M953.14 49.88L961.25 49.88L961.25 57.99L953.14 57.99z" fill="#d3b714"></path><path d="M260.92 64.74L278.12 64.74L278.12 81.94L260.92 81.94z" fill="#e73635"></path><path d="M951.3 85.17 a42.62 42.62 0 1 0 85.24 0 a42.62 42.62 0 1 0 -85.24 0z" fill="#e73635"></path><path d="M464.92 436.41L472.73 436.41L472.73 482.57L464.92 482.57z" stroke="#e73635"></path><path d="M77.74 479.76L85.43 479.76L85.43 487.45L77.74 487.45z" stroke="#e73635"></path><path d="M972.26 344.99L1012.32 344.99L1012.32 350.62L972.26 350.62z" fill="#037b0b"></path><path d="M173.93 32.84L179.47 32.84L179.47 38.38L173.93 38.38z" stroke="#037b0b"></path><path d="M1124.31 530.22L1166.32 530.22L1166.32 531.95L1124.31 531.95z" fill="#d3b714"></path></g><defs><mask id="SvgjsMask1000"><rect width="1440" height="560" fill="#ffffff"></rect></mask></defs></svg>