<svg xmlns="http://www.w3.org/2000/svg" version="1.1" xmlns:xlink="http://www.w3.org/1999/xlink" xmlns:svgjs="http://svgjs.com/svgjs" width="1440" height="560" preserveAspectRatio="none" viewBox="0 0 1440 560"><g mask="url(&quot;#SvgjsMask1007&quot;)" fill="none"><rect width="1440" height="560" x="0" y="0" fill="#0e2a47"></rect><path d="M277.47 30.44L290.35 30.44L290.35 32.04L277.47 32.04z" stroke="#e73635"></path><path d="M234.25 411.8L236.32 411.8L236.32 443.87L234.25 443.87z" stroke="#d3b714"></path><path d="M119.68 140.2L124.58 140.2L124.58 145.1L119.68 145.1z" fill="#d3b714"></path><path d="M783.42 505.83 a3.1 3.1 0 1 0 6.2 0 a3.1 3.1 0 1 0 -6.2 0z" stroke="#e73635"></path><path d="M282.23 208.5a46.61 46.61 0 1 0 46.95-80.54z" fill="#d3b714"></path><path d="M1227.18 167.61a38.38 38.38 0 1 0 7.47 76.39z" stroke="#e73635"></path><path d="M193.33 227.74L199.09 227.74L199.09 233.5L193.33 233.5z" fill="#e73635"></path><path d="M1033.52 419.2L1061.26 419.2L1061.26 453.47L1033.52 453.47z" stroke="#d3b714"></path><path d="M758.56 477.53 a50.4 50.4 0 1 0 100.8 0 a50.4 50.4 0 1 0 -100.8 0z" fill="#037b0b"></path><path d="M255.51 496.01L281.46 496.01L281.46 521.96L255.51 521.96z" fill="#037b0b"></path><path d="M1003.87 195.8L1006.88 195.8L1006.88 198.81L1003.87 198.81z" stroke="#037b0b"></path><path d="M550.09 114.27 a39.12 39.12 0 1 0 78.24 0 a39.12 39.12 0 1 0 -78.24 0z" fill="#037b0b"></path><path d="M949.33 31.25a46.63 46.63 0 1 0 75.4-54.88z" stroke="#d3b714"></path><path d="M327.4 278.27 a32.37 32.37 0 1 0 64.74 0 a32.37 32.37 0 1 0 -64.74 0z" stroke="#e73635"></path><path d="M340.65 476.73L391.27 476.73L391.27 527.35L340.65 527.35z" stroke="#d3b714"></path><path d="M63.87 55.69L108.25 55.69L108.25 60.14L63.87 60.14z" stroke="#e73635"></path><path d="M417.14 489.53L459.66 489.53L459.66 503.72L417.14 503.72z" fill="#037b0b"></path><path d="M819.48 524.34 a15.57 15.57 0 1 0 31.14 0 a15.57 15.57 0 1 0 -31.14 0z" stroke="#037b0b"></path><path d="M1122.6 493.4a16.79 16.79 0 1 0 0.53 33.57z" fill="#e73635"></path><path d="M1382.56 193.3a54.68 54.68 0 1 0-85.12 68.65z" fill="#037b0b"></path><path d="M880.21 537.5L904.42 537.5L904.42 543.45L880.21 543.45z" stroke="#e73635"></path><path d="M1186.46 451.84 a8.94 8.94 0 1 0 17.88 0 a8.94 8.94 0 1 0 -17.88 0z" stroke="#037b0b"></path><path d="M1196.76 437.68L1242.75 437.68L1242.75 478.2L1196.76 478.2z" fill="#d3b714"></path><path d="M663.69 8.84a52.05 52.05 0 1 0 59.2 85.63z" stroke="#d3b714"></path><path d="M125.18 476.28L152.4 476.28L152.4 510.62L125.18 510.62z" fill="#e73635"></path><path d="M1206.86 367.94 a14.1 14.1 0 1 0 28.2 0 a14.1 14.1 0 1 0 -28.2 0z" stroke="#d3b714"></path><path d="M1241.94 517.29 a32.76 32.76 0 1 0 65.52 0 a32.76 32.76 0 1 0 -65.52 0z" fill="#d3b714"></path><path d="M230.65 492.81 a41.99 41.99 0 1 0 83.98 0 a41.99 41.99 0 1 0 -83.98 0z" fill="#037b0b"></path><path d="M618.86 130.06L634.27 130.06L634.27 145.47L618.86 145.47z" fill="#037b0b"></path><path d="M1289.84 418.18L1306.94 418.18L1306.94 433.73L1289.84 433.73z" fill="#d3b714"></path><path d="M212.61 363.63a12.98 12.98 0 1 0-23.49-11.05z" fill="#d3b714"></path><path d="M490.42 362.88 a37.75 37.75 0 1 0 75.5 0 a37.75 37.75 0 1 0 -75.5 0z" fill="#037b0b"></path><path d="M886.17 466.16L920.86 466.16L920.86 500.85L886.17 500.85z" fill="#e73635"></path></g><defs><mask id="SvgjsMask1007"><rect width="1440" height="560" fill="#ffffff"></rect></mask></defs></svg>