<svg xmlns="http://www.w3.org/2000/svg" version="1.1" xmlns:xlink="http://www.w3.org/1999/xlink" xmlns:svgjs="http://svgjs.com/svgjs" width="1440" height="560" preserveAspectRatio="none" viewBox="0 0 1440 560"><g mask="url(&quot;#SvgjsMask1037&quot;)" fill="none"><rect width="1440" height="560" x="0" y="0" fill="#0e2a47"></rect><path d="M884.02 309.51L903.81 309.51L903.81 351.16L884.02 351.16z" stroke="#e73635"></path><path d="M335.41 500.26a10.05 10.05 0 1 0 2.48-19.94z" fill="#d3b714"></path><path d="M572.57 455.52 a4.75 4.75 0 1 0 9.5 0 a4.75 4.75 0 1 0 -9.5 0z" fill="#037b0b"></path><path d="M845.49 413.8L876.37 413.8L876.37 461.02L845.49 461.02z" fill="#037b0b"></path><path d="M400.46 306.13L403.73 306.13L403.73 309.4L400.46 309.4z" fill="#037b0b"></path><path d="M362.85 333.46L404.31 333.46L404.31 333.69L362.85 333.69z" stroke="#d3b714"></path><path d="M342.82 106.48a22.51 22.51 0 1 0 41.2-18.16z" stroke="#037b0b"></path><path d="M785.5 156.25 a37.67 37.67 0 1 0 75.34 0 a37.67 37.67 0 1 0 -75.34 0z" fill="#d3b714"></path><path d="M871.04 46.26L880.67 46.26L880.67 55.89L871.04 55.89z" fill="#e73635"></path><path d="M153.44 292.45 a36.96 36.96 0 1 0 73.92 0 a36.96 36.96 0 1 0 -73.92 0z" fill="#e73635"></path><path d="M468.36 559.55L506.97 559.55L506.97 561.31L468.36 561.31z" stroke="#e73635"></path><path d="M1024.72 506.38L1048.06 506.38L1048.06 558.07L1024.72 558.07z" fill="#d3b714"></path><path d="M302.37 323.3L336.93 323.3L336.93 340.1L302.37 340.1z" fill="#e73635"></path><path d="M286.43 320.23a48.19 48.19 0 1 0-96.36 2.12z" stroke="#037b0b"></path><path d="M351.57 261.51L385.03 261.51L385.03 280.65L351.57 280.65z" stroke="#d3b714"></path><path d="M1412.3 318.87L1463.57 318.87L1463.57 335.66L1412.3 335.66z" fill="#e73635"></path><path d="M1074.01 391.66L1105.84 391.66L1105.84 423.49L1074.01 423.49z" fill="#e73635"></path><path d="M1017.41 330.29 a2.36 2.36 0 1 0 4.72 0 a2.36 2.36 0 1 0 -4.72 0z" fill="#037b0b"></path><path d="M383.99 557.01L411.61 557.01L411.61 580.01L383.99 580.01z" stroke="#d3b714"></path><path d="M664.85 124.66L674.71 124.66L674.71 134.52L664.85 134.52z" stroke="#037b0b"></path><path d="M926.28 217.52 a44.24 44.24 0 1 0 88.48 0 a44.24 44.24 0 1 0 -88.48 0z" stroke="#e73635"></path><path d="M195.78 56.82L247.04 56.82L247.04 108.08L195.78 108.08z" stroke="#d3b714"></path><path d="M102.25 256.89a54.72 54.72 0 1 0 32.49-104.51z" fill="#e73635"></path><path d="M878.27 456.94L907.62 456.94L907.62 463.41L878.27 463.41z" stroke="#037b0b"></path><path d="M292.34 417.28L342.04 417.28L342.04 424.71L292.34 424.71z" fill="#e73635"></path><path d="M913.42 339.63 a32.44 32.44 0 1 0 64.88 0 a32.44 32.44 0 1 0 -64.88 0z" stroke="#e73635"></path><path d="M426.61 295.17a15.11 15.11 0 1 0 26.2-15.06z" fill="#e73635"></path><path d="M1412.47 459.7L1439.46 459.7L1439.46 486.69L1412.47 486.69z" fill="#d3b714"></path><path d="M54.12 490.77 a5.65 5.65 0 1 0 11.3 0 a5.65 5.65 0 1 0 -11.3 0z" fill="#d3b714"></path><path d="M706.5 315.31L745.92 315.31L745.92 354.73L706.5 354.73z" fill="#e73635"></path><path d="M1392.53 528.24L1410.64 528.24L1410.64 546.35L1392.53 546.35z" stroke="#e73635"></path><path d="M577.47 30.24L608.91 30.24L608.91 62.73L577.47 62.73z" stroke="#e73635"></path><path d="M338.59 370.16 a8.72 8.72 0 1 0 17.44 0 a8.72 8.72 0 1 0 -17.44 0z" stroke="#e73635"></path></g><defs><mask id="SvgjsMask1037"><rect width="1440" height="560" fill="#ffffff"></rect></mask></defs></svg>