<svg xmlns="http://www.w3.org/2000/svg" version="1.1" xmlns:xlink="http://www.w3.org/1999/xlink" xmlns:svgjs="http://svgjs.com/svgjs" width="1440" height="560" preserveAspectRatio="none" viewBox="0 0 1440 560"><g mask="url(&quot;#SvgjsMask1022&quot;)" fill="none"><rect width="1440" height="560" x="0" y="0" fill="#0e2a47"></rect><path d="M437.02 463.31L441.59 463.31L441.59 467.88L437.02 467.88z" stroke="#e73635"></path><path d="M1134.14 35.45 a44.93 44.93 0 1 0 89.86 0 a44.93 44.93 0 1 0 -89.86 0z" fill="#d3b714"></path><path d="M1135.01 215.67L1157.83 215.67L1157.83 238.49L1135.01 238.49z" stroke="#d3b714"></path><path d="M1073.72 533.01L1079.2 533.01L1079.2 584.75L1073.72 584.75z" fill="#d3b714"></path><path d="M399.52 279.87L452.61 279.87L452.61 332.96L399.52 332.96z" fill="#e73635"></path><path d="M1005.32 158.99L1057.06 158.99L1057.06 177.71L1005.32 177.71z" stroke="#e73635"></path><path d="M1038.21 550.62L1081.98 550.62L1081.98 594.39L1038.21 594.39z" fill="#d3b714"></path><path d="M211.14 499.32L256.21 499.32L256.21 541.22L211.14 541.22z" stroke="#d3b714"></path><path d="M918.64 176.44 a48.12 48.12 0 1 0 96.24 0 a48.12 48.12 0 1 0 -96.24 0z" fill="#e73635"></path><path d="M858.55 85.57L862 85.57L862 101.25L858.55 101.25z" stroke="#e73635"></path><path d="M1055.79 432.3L1056.6 432.3L1056.6 482.78L1055.79 482.78z" stroke="#037b0b"></path><path d="M586.65 393.4L597.64 393.4L597.64 404.39L586.65 404.39z" stroke="#e73635"></path><path d="M991.3 237.29L1002.49 237.29L1002.49 248.48L991.3 248.48z" fill="#d3b714"></path><path d="M1169.52 453.67L1188.48 453.67L1188.48 489.64L1169.52 489.64z" fill="#037b0b"></path><path d="M1339.4 254.67a39.46 39.46 0 1 0 3.03-78.86z" fill="#d3b714"></path><path d="M1236.34 3.7L1245.03 3.7L1245.03 12.39L1236.34 12.39z" fill="#d3b714"></path><path d="M1270.41 439.61 a22.23 22.23 0 1 0 44.46 0 a22.23 22.23 0 1 0 -44.46 0z" fill="#d3b714"></path><path d="M677.52 275.02 a38.93 38.93 0 1 0 77.86 0 a38.93 38.93 0 1 0 -77.86 0z" fill="#037b0b"></path><path d="M798.33 553.34L812.85 553.34L812.85 567.86L798.33 567.86z" fill="#037b0b"></path><path d="M719.27 40.93L751.29 40.93L751.29 72.95L719.27 72.95z" fill="#e73635"></path><path d="M1298.92 33.63a16.74 16.74 0 1 0 31.64 10.92z" stroke="#d3b714"></path><path d="M753.48 63.48L793.03 63.48L793.03 87.77L753.48 87.77z" fill="#e73635"></path><path d="M218.32 534.26L233.26 534.26L233.26 564.33L218.32 564.33z" stroke="#e73635"></path><path d="M939.3 552.52 a19.91 19.91 0 1 0 39.82 0 a19.91 19.91 0 1 0 -39.82 0z" stroke="#e73635"></path><path d="M1109 553.52a3.33 3.33 0 1 0 4.91-4.5z" stroke="#037b0b"></path><path d="M511.59 422.54L538.35 422.54L538.35 470.38L511.59 470.38z" fill="#d3b714"></path><path d="M132.19 146.07L134.93 146.07L134.93 148.81L132.19 148.81z" stroke="#d3b714"></path><path d="M825.11 107.23 a31.72 31.72 0 1 0 63.44 0 a31.72 31.72 0 1 0 -63.44 0z" fill="#037b0b"></path><path d="M659.95 113.53 a36.93 36.93 0 1 0 73.86 0 a36.93 36.93 0 1 0 -73.86 0z" stroke="#d3b714"></path><path d="M1196.04 206.94L1244.65 206.94L1244.65 262.82L1196.04 262.82z" fill="#e73635"></path><path d="M523.09 514.98L526.31 514.98L526.31 569.25L523.09 569.25z" stroke="#e73635"></path><path d="M749.71 277.57 a39.17 39.17 0 1 0 78.34 0 a39.17 39.17 0 1 0 -78.34 0z" fill="#d3b714"></path><path d="M1371.2 472.93L1413.83 472.93L1413.83 518.31L1371.2 518.31z" fill="#e73635"></path></g><defs><mask id="SvgjsMask1022"><rect width="1440" height="560" fill="#ffffff"></rect></mask></defs></svg>