<svg xmlns="http://www.w3.org/2000/svg" version="1.1" xmlns:xlink="http://www.w3.org/1999/xlink" xmlns:svgjs="http://svgjs.com/svgjs" width="1440" height="560" preserveAspectRatio="none" viewBox="0 0 1440 560"><g mask="url(&quot;#SvgjsMask1034&quot;)" fill="none"><rect width="1440" height="560" x="0" y="0" fill="#0e2a47"></rect><path d="M1010.48 466.03L1021.1 466.03L1021.1 476.65L1010.48 476.65z" stroke="#037b0b"></path><path d="M665.07 154.48a7.46 7.46 0 1 0-14.8 1.85z" stroke="#037b0b"></path><path d="M483.77 56.17L537.41 56.17L537.41 106.43L483.77 106.43z" stroke="#037b0b"></path><path d="M1431.59 234.24L1433.03 234.24L1433.03 235.68L1431.59 235.68z" fill="#e73635"></path><path d="M867.26 120.72L906.8 120.72L906.8 160.26L867.26 160.26z" fill="#e73635"></path><path d="M234.73 172.57a11.71 11.71 0 1 0-18.92 13.8z" fill="#d3b714"></path><path d="M101.45 481.93L157.42 481.93L157.42 524.07L101.45 524.07z" fill="#037b0b"></path><path d="M103.34 308.31a49.55 49.55 0 1 0-84.86 51.18z" stroke="#d3b714"></path><path d="M1048.83 305.43 a40.48 40.48 0 1 0 80.96 0 a40.48 40.48 0 1 0 -80.96 0z" stroke="#037b0b"></path><path d="M204.79 144.91 a29.16 29.16 0 1 0 58.32 0 a29.16 29.16 0 1 0 -58.32 0z" stroke="#d3b714"></path><path d="M5.49 527.54a10.06 10.06 0 1 0 19.26-5.82z" fill="#037b0b"></path><path d="M507.91 202.01L514.44 202.01L514.44 208.54L507.91 208.54z" fill="#d3b714"></path><path d="M643.88 14.16 a25.84 25.84 0 1 0 51.68 0 a25.84 25.84 0 1 0 -51.68 0z" fill="#037b0b"></path><path d="M1004.65 470.41a1.12 1.12 0 1 0 2 1z" stroke="#e73635"></path><path d="M1122.63 388.07 a22.85 22.85 0 1 0 45.7 0 a22.85 22.85 0 1 0 -45.7 0z" fill="#e73635"></path><path d="M1064.68 466.57 a33.76 33.76 0 1 0 67.52 0 a33.76 33.76 0 1 0 -67.52 0z" stroke="#e73635"></path><path d="M702.45 481.42a33.53 33.53 0 1 0-34.14 57.72z" stroke="#037b0b"></path><path d="M1020.76 2.7 a52.68 52.68 0 1 0 105.36 0 a52.68 52.68 0 1 0 -105.36 0z" stroke="#e73635"></path><path d="M1363.7 422.79 a43.23 43.23 0 1 0 86.46 0 a43.23 43.23 0 1 0 -86.46 0z" stroke="#d3b714"></path><path d="M750.65 503.81 a25.68 25.68 0 1 0 51.36 0 a25.68 25.68 0 1 0 -51.36 0z" stroke="#d3b714"></path><path d="M438.94 164.7L488.38 164.7L488.38 214.14L438.94 214.14z" stroke="#d3b714"></path><path d="M1332.92 125.63 a30.19 30.19 0 1 0 60.38 0 a30.19 30.19 0 1 0 -60.38 0z" fill="#037b0b"></path><path d="M309.76 330.73a26.5 26.5 0 1 0 52.88-3.66z" fill="#037b0b"></path><path d="M1051.59 298.38L1075.6 298.38L1075.6 326.52L1051.59 326.52z" stroke="#037b0b"></path><path d="M686.03 340.37L691.92 340.37L691.92 346.26L686.03 346.26z" stroke="#d3b714"></path><path d="M575.76 390.33 a20.67 20.67 0 1 0 41.34 0 a20.67 20.67 0 1 0 -41.34 0z" fill="#e73635"></path><path d="M199.46 400.87a40.58 40.58 0 1 0 35.64-72.91z" fill="#d3b714"></path><path d="M785 182.7 a45.77 45.77 0 1 0 91.54 0 a45.77 45.77 0 1 0 -91.54 0z" fill="#037b0b"></path><path d="M1423.03 324.22L1428.69 324.22L1428.69 329.88L1423.03 329.88z" stroke="#037b0b"></path><path d="M1191.2 368.59a55.03 55.03 0 1 0 95.86 54.08z" stroke="#037b0b"></path><path d="M1152.44 184.89L1197.46 184.89L1197.46 229.91L1152.44 229.91z" fill="#d3b714"></path><path d="M351.65 219.92L374.6 219.92L374.6 242.87L351.65 242.87z" stroke="#037b0b"></path><path d="M1208.63 191.19L1228.47 191.19L1228.47 211.03L1208.63 211.03z" fill="#037b0b"></path></g><defs><mask id="SvgjsMask1034"><rect width="1440" height="560" fill="#ffffff"></rect></mask></defs></svg>