<svg xmlns="http://www.w3.org/2000/svg" version="1.1" xmlns:xlink="http://www.w3.org/1999/xlink" xmlns:svgjs="http://svgjs.com/svgjs" width="1440" height="560" preserveAspectRatio="none" viewBox="0 0 1440 560"><g mask="url(&quot;#SvgjsMask1012&quot;)" fill="none"><rect width="1440" height="560" x="0" y="0" fill="#0e2a47"></rect><path d="M79.51 476.09 a40.65 40.65 0 1 0 81.3 0 a40.65 40.65 0 1 0 -81.3 0z" stroke="#037b0b"></path><path d="M827.1 393.57 a17.84 17.84 0 1 0 35.68 0 a17.84 17.84 0 1 0 -35.68 0z" fill="#e73635"></path><path d="M989.21 328.72 a1.84 1.84 0 1 0 3.68 0 a1.84 1.84 0 1 0 -3.68 0z" fill="#e73635"></path><path d="M554.42 285.35L557.53 285.35L557.53 288.46L554.42 288.46z" stroke="#d3b714"></path><path d="M1303.05 73.88L1331.47 73.88L1331.47 84.28L1303.05 84.28z" stroke="#037b0b"></path><path d="M434.52 403.33 a10.69 10.69 0 1 0 21.38 0 a10.69 10.69 0 1 0 -21.38 0z" stroke="#e73635"></path><path d="M692.95 45.93L722.57 45.93L722.57 75.55L692.95 75.55z" stroke="#d3b714"></path><path d="M1316.67 358.31L1371.38 358.31L1371.38 365.24L1316.67 365.24z" fill="#d3b714"></path><path d="M1295.35 90.48L1331.71 90.48L1331.71 126.84L1295.35 126.84z" fill="#d3b714"></path><path d="M1425.67 304.57L1434.66 304.57L1434.66 313.56L1425.67 313.56z" stroke="#e73635"></path><path d="M366.37 281.63 a18.18 18.18 0 1 0 36.36 0 a18.18 18.18 0 1 0 -36.36 0z" fill="#e73635"></path><path d="M522.86 498.54L567.86 498.54L567.86 543.54L522.86 543.54z" stroke="#d3b714"></path><path d="M1354.33 216.75 a3.31 3.31 0 1 0 6.62 0 a3.31 3.31 0 1 0 -6.62 0z" fill="#e73635"></path><path d="M1322.36 374.87 a15.94 15.94 0 1 0 31.88 0 a15.94 15.94 0 1 0 -31.88 0z" fill="#037b0b"></path><path d="M862.81 230.55L899.97 230.55L899.97 267.71L862.81 267.71z" fill="#e73635"></path><path d="M942.79 412.61a25.16 25.16 0 1 0-47.21-17.42z" stroke="#e73635"></path><path d="M287.78 214.59a26.21 26.21 0 1 0-52.23-4.43z" fill="#037b0b"></path><path d="M526.98 19.67a13.6 13.6 0 1 0 1.61 27.16z" stroke="#d3b714"></path><path d="M556.68 42.68L597.84 42.68L597.84 83.84L556.68 83.84z" stroke="#e73635"></path><path d="M1372.05 395.59a10.02 10.02 0 1 0 19.28 5.47z" stroke="#d3b714"></path><path d="M638.3 435.8a14.93 14.93 0 1 0 13.74 26.51z" fill="#e73635"></path><path d="M986 397.57a5.76 5.76 0 1 0 0.18 11.52z" stroke="#d3b714"></path><path d="M313.13 63.03 a17.4 17.4 0 1 0 34.8 0 a17.4 17.4 0 1 0 -34.8 0z" stroke="#d3b714"></path><path d="M1321.04 597.87a43.3 43.3 0 1 0 19.32-84.42z" fill="#e73635"></path><path d="M809.27 25.58L820.4 25.58L820.4 75.73L809.27 75.73z" fill="#037b0b"></path><path d="M692.51 483.81L698.75 483.81L698.75 490.05L692.51 490.05z" fill="#037b0b"></path><path d="M596.71 30.72L600.05 30.72L600.05 68.77L596.71 68.77z" fill="#d3b714"></path><path d="M1300.48 192.21L1326.93 192.21L1326.93 218.66L1300.48 218.66z" fill="#e73635"></path><path d="M1471.54 170.85a49.65 49.65 0 1 0-67.79-72.55z" stroke="#037b0b"></path><path d="M921.8 533.1L957.76 533.1L957.76 558.9L921.8 558.9z" stroke="#d3b714"></path><path d="M-28.11 263.11 a34.18 34.18 0 1 0 68.36 0 a34.18 34.18 0 1 0 -68.36 0z" fill="#d3b714"></path><path d="M26.44 83.08a33.32 33.32 0 1 0-12.99-65.36z" fill="#037b0b"></path><path d="M37.25 452.45L67.37 452.45L67.37 482.57L37.25 482.57z" fill="#d3b714"></path></g><defs><mask id="SvgjsMask1012"><rect width="1440" height="560" fill="#ffffff"></rect></mask></defs></svg>