<svg xmlns="http://www.w3.org/2000/svg" version="1.1" xmlns:xlink="http://www.w3.org/1999/xlink" xmlns:svgjs="http://svgjs.com/svgjs" width="1440" height="560" preserveAspectRatio="none" viewBox="0 0 1440 560"><g mask="url(&quot;#SvgjsMask1033&quot;)" fill="none"><rect width="1440" height="560" x="0" y="0" fill="#0e2a47"></rect><path d="M365.99 43.38a35.37 35.37 0 1 0 70.66-3.32z" stroke="#e73635"></path><path d="M20.9 173.55 a49.04 49.04 0 1 0 98.08 0 a49.04 49.04 0 1 0 -98.08 0z" fill="#037b0b"></path><path d="M1031.57 325.44L1087 325.44L1087 380.87L1031.57 380.87z" stroke="#037b0b"></path><path d="M1273.2 571.97a41.81 41.81 0 1 0 56.16-61.95z" fill="#037b0b"></path><path d="M404.46 235.2 a17.22 17.22 0 1 0 34.44 0 a17.22 17.22 0 1 0 -34.44 0z" stroke="#037b0b"></path><path d="M1283.38 330.49a30.31 30.31 0 1 0 31.28-51.92z" stroke="#e73635"></path><path d="M555.69 191.51L571.76 191.51L571.76 236.94L555.69 236.94z" fill="#e73635"></path><path d="M681.59 69.57L726.18 69.57L726.18 93.93L681.59 93.93z" stroke="#037b0b"></path><path d="M877.24 320.42 a14.47 14.47 0 1 0 28.94 0 a14.47 14.47 0 1 0 -28.94 0z" fill="#e73635"></path><path d="M1191.81 559.38L1202.2 559.38L1202.2 564.88L1191.81 564.88z" fill="#d3b714"></path><path d="M1045.69 430.67 a4.71 4.71 0 1 0 9.42 0 a4.71 4.71 0 1 0 -9.42 0z" stroke="#d3b714"></path><path d="M25.84 256.53 a16.08 16.08 0 1 0 32.16 0 a16.08 16.08 0 1 0 -32.16 0z" stroke="#d3b714"></path><path d="M547.98 331.96L599.17 331.96L599.17 341.98L547.98 341.98z" stroke="#e73635"></path><path d="M551.61 449.28L603.38 449.28L603.38 462.03L551.61 462.03z" stroke="#e73635"></path><path d="M876.73 172.6a53.31 53.31 0 1 0-98.2 41.53z" stroke="#d3b714"></path><path d="M1253.95 331.86L1306.3 331.86L1306.3 341.39L1253.95 341.39z" fill="#e73635"></path><path d="M872.73 144.49a16.51 16.51 0 1 0-23.51 23.19z" stroke="#e73635"></path><path d="M147.68 57.97L164.34 57.97L164.34 78.86L147.68 78.86z" fill="#037b0b"></path><path d="M1312.27 460.87a44.98 44.98 0 1 0-89.56-8.43z" stroke="#037b0b"></path><path d="M537.91 71.47L560.31 71.47L560.31 93.87L537.91 93.87z" stroke="#d3b714"></path><path d="M122.36 335.61 a51.94 51.94 0 1 0 103.88 0 a51.94 51.94 0 1 0 -103.88 0z" stroke="#e73635"></path><path d="M1160.53 52.41a42.95 42.95 0 1 0 66.25-54.68z" stroke="#037b0b"></path><path d="M192.02 418.6L210.71 418.6L210.71 463.67L192.02 463.67z" stroke="#d3b714"></path><path d="M544.26 400.66L544.38 400.66L544.38 416.97L544.26 416.97z" stroke="#037b0b"></path><path d="M595 328.11 a31.07 31.07 0 1 0 62.14 0 a31.07 31.07 0 1 0 -62.14 0z" fill="#d3b714"></path><path d="M1221.58 92.21L1225.19 92.21L1225.19 95.82L1221.58 95.82z" fill="#e73635"></path><path d="M133.2 91.66L160.04 91.66L160.04 118.5L133.2 118.5z" stroke="#e73635"></path><path d="M377.27 150.87a5.34 5.34 0 1 0 9.9-4.02z" stroke="#037b0b"></path><path d="M1437.84 417.49L1446.74 417.49L1446.74 469.06L1437.84 469.06z" stroke="#037b0b"></path><path d="M861.6 72.83L915.64 72.83L915.64 126.87L861.6 126.87z" fill="#037b0b"></path><path d="M1352.29 396.65L1367.41 396.65L1367.41 411.77L1352.29 411.77z" fill="#d3b714"></path><path d="M1001.35 62.61 a16.82 16.82 0 1 0 33.64 0 a16.82 16.82 0 1 0 -33.64 0z" stroke="#d3b714"></path><path d="M761.88 522.72L768.36 522.72L768.36 569.87L761.88 569.87z" stroke="#e73635"></path></g><defs><mask id="SvgjsMask1033"><rect width="1440" height="560" fill="#ffffff"></rect></mask></defs></svg>