<svg xmlns="http://www.w3.org/2000/svg" version="1.1" xmlns:xlink="http://www.w3.org/1999/xlink" xmlns:svgjs="http://svgjs.com/svgjs" width="1440" height="560" preserveAspectRatio="none" viewBox="0 0 1440 560"><g mask="url(&quot;#SvgjsMask1001&quot;)" fill="none"><rect width="1440" height="560" x="0" y="0" fill="#0e2a47"></rect><path d="M1235.62 556.47 a15.42 15.42 0 1 0 30.84 0 a15.42 15.42 0 1 0 -30.84 0z" fill="#e73635"></path><path d="M1261.4 416.23a31.01 31.01 0 1 0-59.52-17.45z" stroke="#037b0b"></path><path d="M770.06 454.12a36.34 36.34 0 1 0 22.96 68.96z" fill="#e73635"></path><path d="M899.29 260.88 a11.96 11.96 0 1 0 23.92 0 a11.96 11.96 0 1 0 -23.92 0z" fill="#037b0b"></path><path d="M1057.2 257L1068.97 257L1068.97 296.09L1057.2 296.09z" fill="#037b0b"></path><path d="M1158.77 19.74 a19.69 19.69 0 1 0 39.38 0 a19.69 19.69 0 1 0 -39.38 0z" stroke="#d3b714"></path><path d="M219.78 442.35a45.24 45.24 0 1 0 62.01 65.89z" stroke="#d3b714"></path><path d="M1070.3 391.33a8.05 8.05 0 1 0-14.94-6.01z" fill="#037b0b"></path><path d="M564.83 273.39 a19.46 19.46 0 1 0 38.92 0 a19.46 19.46 0 1 0 -38.92 0z" stroke="#037b0b"></path><path d="M-5.49 305.26 a44.41 44.41 0 1 0 88.82 0 a44.41 44.41 0 1 0 -88.82 0z" fill="#037b0b"></path><path d="M1304.89 54.35L1307.13 54.35L1307.13 56.59L1304.89 56.59z" stroke="#d3b714"></path><path d="M271.59 374.94a9.17 9.17 0 1 0-9.3 15.81z" stroke="#037b0b"></path><path d="M72.9 90.97a18.3 18.3 0 1 0-20.87-30.07z" fill="#037b0b"></path><path d="M634.91 143.27 a55.21 55.21 0 1 0 110.42 0 a55.21 55.21 0 1 0 -110.42 0z" fill="#037b0b"></path><path d="M637.69 159.61a25.19 25.19 0 1 0 44.06 24.42z" stroke="#e73635"></path><path d="M1402.64 434.27L1441.58 434.27L1441.58 448.86L1402.64 448.86z" fill="#d3b714"></path><path d="M1212.03 99.38L1220.99 99.38L1220.99 103.8L1212.03 103.8z" fill="#d3b714"></path><path d="M232.72 272.32 a36.55 36.55 0 1 0 73.1 0 a36.55 36.55 0 1 0 -73.1 0z" fill="#037b0b"></path><path d="M1059.78 347.47L1098.42 347.47L1098.42 386.11L1059.78 386.11z" stroke="#d3b714"></path><path d="M663.66 243.39L684.06 243.39L684.06 263.79L663.66 263.79z" fill="#d3b714"></path><path d="M64.62 516.95L72.59 516.95L72.59 524.92L64.62 524.92z" fill="#e73635"></path><path d="M518.8 104.41 a32.94 32.94 0 1 0 65.88 0 a32.94 32.94 0 1 0 -65.88 0z" stroke="#037b0b"></path><path d="M55.08 551.26L90.76 551.26L90.76 589.03L55.08 589.03z" fill="#d3b714"></path><path d="M176.15 285.5 a28.88 28.88 0 1 0 57.76 0 a28.88 28.88 0 1 0 -57.76 0z" fill="#e73635"></path><path d="M715.29 479.93a5.05 5.05 0 1 0 8.9 4.77z" fill="#037b0b"></path><path d="M986.05 198.82L1035.43 198.82L1035.43 248.2L986.05 248.2z" fill="#037b0b"></path><path d="M451.94 274.21a27.15 27.15 0 1 0-30.93 44.63z" fill="#d3b714"></path><path d="M709.73 92.2 a19.08 19.08 0 1 0 38.16 0 a19.08 19.08 0 1 0 -38.16 0z" fill="#e73635"></path><path d="M313.19 533.81L331.61 533.81L331.61 583.21L313.19 583.21z" stroke="#e73635"></path><path d="M398.87 387.14L421.28 387.14L421.28 391.64L398.87 391.64z" stroke="#037b0b"></path><path d="M810.43 386.25 a35.46 35.46 0 1 0 70.92 0 a35.46 35.46 0 1 0 -70.92 0z" stroke="#d3b714"></path><path d="M799.52 545.33L827.34 545.33L827.34 559.22L799.52 559.22z" stroke="#e73635"></path><path d="M913.54 117.06L959.42 117.06L959.42 162.94L913.54 162.94z" stroke="#d3b714"></path></g><defs><mask id="SvgjsMask1001"><rect width="1440" height="560" fill="#ffffff"></rect></mask></defs></svg>