<svg xmlns="http://www.w3.org/2000/svg" version="1.1" xmlns:xlink="http://www.w3.org/1999/xlink" xmlns:svgjs="http://svgjs.com/svgjs" width="1440" height="560" preserveAspectRatio="none" viewBox="0 0 1440 560"><g mask="url(&quot;#SvgjsMask1038&quot;)" fill="none"><rect width="1440" height="560" x="0" y="0" fill="#0e2a47"></rect><path d="M1340.68 132.04a51.67 51.67 0 1 0 103.32-1.96z" fill="#d3b714"></path><path d="M252 427.18L306.04 427.18L306.04 478.3L252 478.3z" stroke="#d3b714"></path><path d="M1019.44 67.38a7.4 7.4 0 1 0-14.72 1.51z" fill="#e73635"></path><path d="M1068.76 310.21 a54.36 54.36 0 1 0 108.72 0 a54.36 54.36 0 1 0 -108.72 0z" fill="#e73635"></path><path d="M884.6 510.3a32.25 32.25 0 1 0-49.69-41.11z" fill="#d3b714"></path><path d="M676.69 535.21 a33.33 33.33 0 1 0 66.66 0 a33.33 33.33 0 1 0 -66.66 0z" stroke="#037b0b"></path><path d="M1248.25 346.5L1281.97 346.5L1281.97 380.22L1248.25 380.22z" fill="#e73635"></path><path d="M766.12 98.7L766.75 98.7L766.75 141.09L766.12 141.09z" fill="#e73635"></path><path d="M442.75 505.17L443.74 505.17L443.74 506.16L442.75 506.16z" stroke="#e73635"></path><path d="M134.88 551.74L174.73 551.74L174.73 593.79L134.88 593.79z" stroke="#e73635"></path><path d="M217.37 57.7L236.68 57.7L236.68 88.37L217.37 88.37z" fill="#e73635"></path><path d="M1361.24 390.5 a42.76 42.76 0 1 0 85.52 0 a42.76 42.76 0 1 0 -85.52 0z" stroke="#037b0b"></path><path d="M515.59 477.07 a55.95 55.95 0 1 0 111.9 0 a55.95 55.95 0 1 0 -111.9 0z" stroke="#d3b714"></path><path d="M1439.32 170.36L1443.95 170.36L1443.95 208.23L1439.32 208.23z" stroke="#d3b714"></path><path d="M23.56 3.68 a42.06 42.06 0 1 0 84.12 0 a42.06 42.06 0 1 0 -84.12 0z" fill="#037b0b"></path><path d="M1203.93 412.66L1241.82 412.66L1241.82 465.37L1203.93 465.37z" stroke="#e73635"></path><path d="M592.57 92.48a39.61 39.61 0 1 0-7.75-78.84z" stroke="#e73635"></path><path d="M778.63 554.03a6.34 6.34 0 1 0-9.4-8.5z" stroke="#e73635"></path><path d="M177.21 477.51L183.25 477.51L183.25 519.59L177.21 519.59z" stroke="#d3b714"></path><path d="M321.96 85.97 a37.9 37.9 0 1 0 75.8 0 a37.9 37.9 0 1 0 -75.8 0z" fill="#d3b714"></path><path d="M1061.13 160.25a18.82 18.82 0 1 0 22.58-30.12z" stroke="#037b0b"></path><path d="M767.74 55.85 a14.98 14.98 0 1 0 29.96 0 a14.98 14.98 0 1 0 -29.96 0z" stroke="#037b0b"></path><path d="M1329.3 276.12L1375.91 276.12L1375.91 286.8L1329.3 286.8z" fill="#e73635"></path><path d="M802.68 254.32a38.28 38.28 0 1 0-76.06-8.76z" fill="#d3b714"></path><path d="M96.21 2.69L124.92 2.69L124.92 31.4L96.21 31.4z" stroke="#037b0b"></path><path d="M1060.18 23.87L1064.06 23.87L1064.06 27.75L1060.18 27.75z" fill="#037b0b"></path><path d="M918.6 95.3a24.58 24.58 0 1 0 40.3-28.16z" stroke="#037b0b"></path><path d="M1055.81 179.19 a40.23 40.23 0 1 0 80.46 0 a40.23 40.23 0 1 0 -80.46 0z" stroke="#d3b714"></path><path d="M305.01 187.54 a32.89 32.89 0 1 0 65.78 0 a32.89 32.89 0 1 0 -65.78 0z" fill="#d3b714"></path><path d="M15.76 402.47L49.8 402.47L49.8 436.51L15.76 436.51z" stroke="#e73635"></path><path d="M1220.13 301.05a53.2 53.2 0 1 0 105.7 12.16z" stroke="#e73635"></path><path d="M405.59 101.1L426.32 101.1L426.32 138.73L405.59 138.73z" stroke="#e73635"></path><path d="M726.76 521.92 a3.86 3.86 0 1 0 7.72 0 a3.86 3.86 0 1 0 -7.72 0z" stroke="#d3b714"></path></g><defs><mask id="SvgjsMask1038"><rect width="1440" height="560" fill="#ffffff"></rect></mask></defs></svg>