<svg xmlns="http://www.w3.org/2000/svg" version="1.1" xmlns:xlink="http://www.w3.org/1999/xlink" xmlns:svgjs="http://svgjs.com/svgjs" width="1440" height="560" preserveAspectRatio="none" viewBox="0 0 1440 560"><g mask="url(&quot;#SvgjsMask1028&quot;)" fill="none"><rect width="1440" height="560" x="0" y="0" fill="#0e2a47"></rect><path d="M2.16 147.6 a36.77 36.77 0 1 0 73.54 0 a36.77 36.77 0 1 0 -73.54 0z" fill="#037b0b"></path><path d="M517.43 526.22a53.23 53.23 0 1 0 20.66-104.43z" stroke="#037b0b"></path><path d="M450.96 425.48L498.75 425.48L498.75 453.74L450.96 453.74z" fill="#d3b714"></path><path d="M672.17 20.64L718.66 20.64L718.66 73.77L672.17 73.77z" fill="#e73635"></path><path d="M482.59 153.21L533.99 153.21L533.99 194.45L482.59 194.45z" stroke="#e73635"></path><path d="M425.57 259.52 a10.58 10.58 0 1 0 21.16 0 a10.58 10.58 0 1 0 -21.16 0z" fill="#037b0b"></path><path d="M724.24 510.74a10.57 10.57 0 1 0-18.29 10.6z" stroke="#037b0b"></path><path d="M1132.04 6.58 a11.21 11.21 0 1 0 22.42 0 a11.21 11.21 0 1 0 -22.42 0z" fill="#d3b714"></path><path d="M0.04 446.16L7.9 446.16L7.9 454.02L0.04 454.02z" fill="#d3b714"></path><path d="M1038.9 405.29a2.82 2.82 0 1 0 4.82 2.93z" stroke="#e73635"></path><path d="M456.58 548.79L460.8 548.79L460.8 600.35L456.58 600.35z" fill="#037b0b"></path><path d="M710.59 41.38L746.03 41.38L746.03 76.82L710.59 76.82z" fill="#037b0b"></path><path d="M454.77 326.84L502.82 326.84L502.82 374.89L454.77 374.89z" stroke="#d3b714"></path><path d="M594.35 418.48a27.86 27.86 0 1 0 41.75 36.9z" fill="#e73635"></path><path d="M17.25 66.91L60.23 66.91L60.23 98.36L17.25 98.36z" stroke="#037b0b"></path><path d="M1334.07 62.93L1361.91 62.93L1361.91 90.77L1334.07 90.77z" fill="#d3b714"></path><path d="M256.93 429.31 a3.73 3.73 0 1 0 7.46 0 a3.73 3.73 0 1 0 -7.46 0z" stroke="#d3b714"></path><path d="M1229.11 7.48L1276.79 7.48L1276.79 55.16L1229.11 55.16z" fill="#037b0b"></path><path d="M242.72 484.23L298.05 484.23L298.05 539.56L242.72 539.56z" fill="#e73635"></path><path d="M395.66 538.4a18.59 18.59 0 1 0 36.84-5.06z" stroke="#037b0b"></path><path d="M1059.08 402.92a1.62 1.62 0 1 0-0.69-3.17z" stroke="#d3b714"></path><path d="M1165.29 312a0.38 0.38 0 1 0-0.31-0.69z" stroke="#d3b714"></path><path d="M609.08 373.66a36.14 36.14 0 1 0 50.18 52.03z" stroke="#d3b714"></path><path d="M1063 316.87a51.63 51.63 0 1 0-40.42-95.02z" stroke="#037b0b"></path><path d="M1302.75 319.43L1328.74 319.43L1328.74 330.31L1302.75 330.31z" stroke="#d3b714"></path><path d="M469.6-5.84a50.34 50.34 0 1 0-86.63 51.29z" stroke="#d3b714"></path><path d="M769.78 540.2L816.4 540.2L816.4 586.82L769.78 586.82z" fill="#e73635"></path><path d="M273.98 446.93L289.16 446.93L289.16 451.72L273.98 451.72z" fill="#037b0b"></path><path d="M1285.99 202.48a48.41 48.41 0 1 0 75.8 60.24z" fill="#e73635"></path><path d="M648.25 194.6L655.46 194.6L655.46 201.81L648.25 201.81z" fill="#e73635"></path><path d="M1284.19 374.21 a20.44 20.44 0 1 0 40.88 0 a20.44 20.44 0 1 0 -40.88 0z" fill="#d3b714"></path><path d="M484.75 183.32L538.13 183.32L538.13 236.7L484.75 236.7z" fill="#d3b714"></path><path d="M316.53 0.99L359.78 0.99L359.78 5.65L316.53 5.65z" fill="#d3b714"></path></g><defs><mask id="SvgjsMask1028"><rect width="1440" height="560" fill="#ffffff"></rect></mask></defs></svg>