<svg xmlns="http://www.w3.org/2000/svg" version="1.1" xmlns:xlink="http://www.w3.org/1999/xlink" xmlns:svgjs="http://svgjs.com/svgjs" width="1440" height="560" preserveAspectRatio="none" viewBox="0 0 1440 560"><g mask="url(&quot;#SvgjsMask1031&quot;)" fill="none"><rect width="1440" height="560" x="0" y="0" fill="#0e2a47"></rect><path d="M1386.76 559.27L1422.82 559.27L1422.82 560.05L1386.76 560.05z" stroke="#d3b714"></path><path d="M755.71 519.92a13.12 13.12 0 1 0-22.44 13.59z" fill="#e73635"></path><path d="M1234.82 13.27L1287.69 13.27L1287.69 20.23L1234.82 20.23z" fill="#e73635"></path><path d="M1398.7 272.98 a15.61 15.61 0 1 0 31.22 0 a15.61 15.61 0 1 0 -31.22 0z" stroke="#d3b714"></path><path d="M1083.6 338.28L1092.42 338.28L1092.42 347.1L1083.6 347.1z" fill="#037b0b"></path><path d="M971 291.33 a24.53 24.53 0 1 0 49.06 0 a24.53 24.53 0 1 0 -49.06 0z" stroke="#037b0b"></path><path d="M766.32 324.99 a51.22 51.22 0 1 0 102.44 0 a51.22 51.22 0 1 0 -102.44 0z" stroke="#e73635"></path><path d="M135.1 147.49L152.42 147.49L152.42 158.37L135.1 158.37z" fill="#e73635"></path><path d="M360.27 403.31 a4.43 4.43 0 1 0 8.86 0 a4.43 4.43 0 1 0 -8.86 0z" stroke="#e73635"></path><path d="M447.71 514.78a48.09 48.09 0 1 0-59.95-75.21z" stroke="#e73635"></path><path d="M1029.67 268.07a55.44 55.44 0 1 0-100.79-46.2z" stroke="#e73635"></path><path d="M150.11 382.56L191.82 382.56L191.82 424.27L150.11 424.27z" stroke="#d3b714"></path><path d="M245.95 407.56L290.79 407.56L290.79 452.4L245.95 452.4z" fill="#d3b714"></path><path d="M1195.61 274.94 a17.91 17.91 0 1 0 35.82 0 a17.91 17.91 0 1 0 -35.82 0z" fill="#d3b714"></path><path d="M835.44 504.5 a40.94 40.94 0 1 0 81.88 0 a40.94 40.94 0 1 0 -81.88 0z" stroke="#e73635"></path><path d="M363.39 284.48L368.4 284.48L368.4 327.93L363.39 327.93z" stroke="#d3b714"></path><path d="M902.68 111.77a24.23 24.23 0 1 0 48.44-1.18z" stroke="#037b0b"></path><path d="M1107.62 502.83 a21.76 21.76 0 1 0 43.52 0 a21.76 21.76 0 1 0 -43.52 0z" stroke="#d3b714"></path><path d="M583.78 156.2a44.51 44.51 0 1 0-88.84 5.77z" stroke="#e73635"></path><path d="M1074.97 300.15a17.19 17.19 0 1 0-33.22 8.86z" fill="#d3b714"></path><path d="M20.49 21.18a39.62 39.62 0 1 0 60.94 50.65z" stroke="#d3b714"></path><path d="M547.36 513.93L583.35 513.93L583.35 549.92L547.36 549.92z" stroke="#037b0b"></path><path d="M322.01 141.98L346.96 141.98L346.96 166.93L322.01 166.93z" fill="#e73635"></path><path d="M338.69 282.84a4.93 4.93 0 1 0 3.32-9.28z" stroke="#e73635"></path><path d="M1213.41 454.96 a2.59 2.59 0 1 0 5.18 0 a2.59 2.59 0 1 0 -5.18 0z" fill="#e73635"></path><path d="M111.87 229.43 a38.04 38.04 0 1 0 76.08 0 a38.04 38.04 0 1 0 -76.08 0z" fill="#d3b714"></path><path d="M57.43 243.11 a50.84 50.84 0 1 0 101.68 0 a50.84 50.84 0 1 0 -101.68 0z" fill="#037b0b"></path><path d="M563.44 1.02a43.34 43.34 0 1 0-83.15 24.48z" stroke="#d3b714"></path><path d="M346.87 332.53a49.08 49.08 0 1 0 97.96-6.32z" fill="#037b0b"></path><path d="M654.96 416.63a50.25 50.25 0 1 0-86.03 51.94z" stroke="#e73635"></path><path d="M48.88 27.6L51.8 27.6L51.8 73.45L48.88 73.45z" stroke="#d3b714"></path><path d="M470.71 431.4a37.13 37.13 0 1 0 23.27 70.51z" stroke="#d3b714"></path><path d="M1215.77 165.95a51.2 51.2 0 1 0-5.61 102.24z" fill="#037b0b"></path></g><defs><mask id="SvgjsMask1031"><rect width="1440" height="560" fill="#ffffff"></rect></mask></defs></svg>