<svg xmlns="http://www.w3.org/2000/svg" version="1.1" xmlns:xlink="http://www.w3.org/1999/xlink" xmlns:svgjs="http://svgjs.com/svgjs" width="1440" height="560" preserveAspectRatio="none" viewBox="0 0 1440 560"><g mask="url(&quot;#SvgjsMask1030&quot;)" fill="none"><rect width="1440" height="560" x="0" y="0" fill="#0e2a47"></rect><path d="M1361.09 74.85L1401.25 74.85L1401.25 115.01L1361.09 115.01z" stroke="#037b0b"></path><path d="M75.63 285.98L100 285.98L100 310.35L75.63 310.35z" stroke="#e73635"></path><path d="M691.77 46.33L701.41 46.33L701.41 55.97L691.77 55.97z" stroke="#d3b714"></path><path d="M875.86 142.77 a2.41 2.41 0 1 0 4.82 0 a2.41 2.41 0 1 0 -4.82 0z" fill="#e73635"></path><path d="M1255.31 172.58L1281.41 172.58L1281.41 185.72L1255.31 185.72z" stroke="#d3b714"></path><path d="M986.2 0.38L989.31 0.38L989.31 3.49L986.2 3.49z" stroke="#e73635"></path><path d="M1382.49 229.08L1388.79 229.08L1388.79 235.38L1382.49 235.38z" stroke="#e73635"></path><path d="M88.59 158.57L142.52 158.57L142.52 212.5L88.59 212.5z" fill="#037b0b"></path><path d="M39.53 366.34L81.7 366.34L81.7 408.51L39.53 408.51z" stroke="#037b0b"></path><path d="M992.79 281.97L1014.05 281.97L1014.05 303.23L992.79 303.23z" stroke="#d3b714"></path><path d="M682.76 226.19L686.5 226.19L686.5 229.93L682.76 229.93z" stroke="#e73635"></path><path d="M532.11 104.19 a4.51 4.51 0 1 0 9.02 0 a4.51 4.51 0 1 0 -9.02 0z" fill="#037b0b"></path><path d="M679.5 443.71a53.43 53.43 0 1 0 30.45 102.43z" fill="#037b0b"></path><path d="M651.97 324.7 a45.11 45.11 0 1 0 90.22 0 a45.11 45.11 0 1 0 -90.22 0z" stroke="#d3b714"></path><path d="M1287.31 264.7a41.72 41.72 0 1 0-81.27 18.88z" stroke="#037b0b"></path><path d="M1000.52 452.74 a14.95 14.95 0 1 0 29.9 0 a14.95 14.95 0 1 0 -29.9 0z" stroke="#e73635"></path><path d="M703 166.57L734.19 166.57L734.19 211.99L703 211.99z" fill="#037b0b"></path><path d="M31.7 37.89a25.77 25.77 0 1 0-51.35 4.42z" stroke="#e73635"></path><path d="M1160.44 545.43a43.05 43.05 0 1 0 85.72-8.02z" fill="#d3b714"></path><path d="M972.71 496.11a40.9 40.9 0 1 0 73.89-35.1z" stroke="#037b0b"></path><path d="M1342.01 148.01L1342.54 148.01L1342.54 156.11L1342.01 156.11z" stroke="#d3b714"></path><path d="M56.09 118.8a18.79 18.79 0 1 0-34.64-14.57z" fill="#d3b714"></path><path d="M1044.64 504.21L1060.78 504.21L1060.78 519L1044.64 519z" stroke="#d3b714"></path><path d="M1303.95 505.08 a16.98 16.98 0 1 0 33.96 0 a16.98 16.98 0 1 0 -33.96 0z" stroke="#037b0b"></path><path d="M1343.92 132.46 a43.79 43.79 0 1 0 87.58 0 a43.79 43.79 0 1 0 -87.58 0z" fill="#d3b714"></path><path d="M256.72 193.54L307.8 193.54L307.8 223.57L256.72 223.57z" fill="#d3b714"></path><path d="M66.94 127.82L94.71 127.82L94.71 155.59L66.94 155.59z" stroke="#037b0b"></path><path d="M385.3 162.53L402.34 162.53L402.34 179.57L385.3 179.57z" stroke="#d3b714"></path><path d="M594.12 423.68a40.26 40.26 0 1 0-61.46-52.02z" fill="#e73635"></path><path d="M153.19 351.96a11.95 11.95 0 1 0 10.25 21.6z" stroke="#d3b714"></path><path d="M195.48 123.93L224.4 123.93L224.4 152.85L195.48 152.85z" stroke="#037b0b"></path><path d="M300.79 247.32a39.75 39.75 0 1 0 2.2 79.47z" stroke="#d3b714"></path><path d="M947.76 222.52 a9.22 9.22 0 1 0 18.44 0 a9.22 9.22 0 1 0 -18.44 0z" fill="#037b0b"></path></g><defs><mask id="SvgjsMask1030"><rect width="1440" height="560" fill="#ffffff"></rect></mask></defs></svg>