<svg xmlns="http://www.w3.org/2000/svg" version="1.1" xmlns:xlink="http://www.w3.org/1999/xlink" xmlns:svgjs="http://svgjs.com/svgjs" width="1440" height="560" preserveAspectRatio="none" viewBox="0 0 1440 560"><g mask="url(&quot;#SvgjsMask1017&quot;)" fill="none"><rect width="1440" height="560" x="0" y="0" fill="#0e2a47"></rect><path d="M35.47 17.61 a8.54 8.54 0 1 0 17.08 0 a8.54 8.54 0 1 0 -17.08 0z" fill="#037b0b"></path><path d="M316.95 231.42L318.02 231.42L318.02 283.72L316.95 283.72z" fill="#037b0b"></path><path d="M1025.6 210.41 a48.49 48.49 0 1 0 96.98 0 a48.49 48.49 0 1 0 -96.98 0z" fill="#e73635"></path><path d="M365.37 148.85L408.78 148.85L408.78 159.7L365.37 159.7z" stroke="#037b0b"></path><path d="M1286.39 86.13L1298.67 86.13L1298.67 103.93L1286.39 103.93z" fill="#037b0b"></path><path d="M378.69 5 a37.46 37.46 0 1 0 74.92 0 a37.46 37.46 0 1 0 -74.92 0z" stroke="#037b0b"></path><path d="M285.37 105.9 a34.58 34.58 0 1 0 69.16 0 a34.58 34.58 0 1 0 -69.16 0z" stroke="#037b0b"></path><path d="M651.13 236.21L679.79 236.21L679.79 264.87L651.13 264.87z" fill="#037b0b"></path><path d="M715.57 8.6 a10.26 10.26 0 1 0 20.52 0 a10.26 10.26 0 1 0 -20.52 0z" stroke="#d3b714"></path><path d="M1143.73 409.89L1151.11 409.89L1151.11 415.13L1143.73 415.13z" stroke="#e73635"></path><path d="M314.47 323.77a22.84 22.84 0 1 0 13.3 43.71z" stroke="#d3b714"></path><path d="M465.07 280.59 a44.34 44.34 0 1 0 88.68 0 a44.34 44.34 0 1 0 -88.68 0z" fill="#037b0b"></path><path d="M402.06 35.67L441.74 35.67L441.74 37.02L402.06 37.02z" fill="#d3b714"></path><path d="M911.06 419.84L960.14 419.84L960.14 468.92L911.06 468.92z" stroke="#e73635"></path><path d="M541.39 293.63 a31.92 31.92 0 1 0 63.84 0 a31.92 31.92 0 1 0 -63.84 0z" stroke="#037b0b"></path><path d="M959.46 431.62a27.14 27.14 0 1 0 8.32 53.64z" fill="#037b0b"></path><path d="M181.23 45.37a1.6 1.6 0 1 0 2.66-1.78z" stroke="#e73635"></path><path d="M348.06 401.94L362.36 401.94L362.36 412.32L348.06 412.32z" stroke="#e73635"></path><path d="M1413.05 381.05L1413.52 381.05L1413.52 393.53L1413.05 393.53z" fill="#037b0b"></path><path d="M1156.25 125.15 a27.34 27.34 0 1 0 54.68 0 a27.34 27.34 0 1 0 -54.68 0z" fill="#037b0b"></path><path d="M204.73 339.69L234.61 339.69L234.61 356.51L204.73 356.51z" stroke="#037b0b"></path><path d="M1304.19 508.53L1353.3 508.53L1353.3 553.97L1304.19 553.97z" stroke="#e73635"></path><path d="M1067.19 266.96a9.14 9.14 0 1 0-10.21 15.16z" fill="#d3b714"></path><path d="M1246.01 427.41 a14.61 14.61 0 1 0 29.22 0 a14.61 14.61 0 1 0 -29.22 0z" fill="#e73635"></path><path d="M37.18 568.11a8.33 8.33 0 1 0 2.27-16.5z" fill="#e73635"></path><path d="M179.77 244.33L184.75 244.33L184.75 272.52L179.77 272.52z" stroke="#d3b714"></path><path d="M11.62 20.74L44.21 20.74L44.21 71.96L11.62 71.96z" stroke="#d3b714"></path><path d="M61.6 144.54L66.73 144.54L66.73 149.67L61.6 149.67z" fill="#e73635"></path><path d="M753.75 56.32L790.99 56.32L790.99 97.84L753.75 97.84z" stroke="#037b0b"></path><path d="M1258.17 111.08L1312.92 111.08L1312.92 165.83L1258.17 165.83z" fill="#d3b714"></path><path d="M642.64 65.31a40 40 0 1 0-75.38-26.79z" stroke="#d3b714"></path><path d="M187.57 497.4a23.37 23.37 0 1 0 2.98 46.65z" stroke="#037b0b"></path><path d="M445.8 66.18L498.78 66.18L498.78 73.76L445.8 73.76z" stroke="#d3b714"></path></g><defs><mask id="SvgjsMask1017"><rect width="1440" height="560" fill="#ffffff"></rect></mask></defs></svg>