<svg xmlns="http://www.w3.org/2000/svg" version="1.1" xmlns:xlink="http://www.w3.org/1999/xlink" xmlns:svgjs="http://svgjs.com/svgjs" width="1440" height="560" preserveAspectRatio="none" viewBox="0 0 1440 560"><g mask="url(&quot;#SvgjsMask1027&quot;)" fill="none"><rect width="1440" height="560" x="0" y="0" fill="#0e2a47"></rect><path d="M224.77 399.87 a14.79 14.79 0 1 0 29.58 0 a14.79 14.79 0 1 0 -29.58 0z" fill="#d3b714"></path><path d="M1244.35 437.61L1247.54 437.61L1247.54 474.79L1244.35 474.79z" fill="#d3b714"></path><path d="M560.49 389.69 a10.68 10.68 0 1 0 21.36 0 a10.68 10.68 0 1 0 -21.36 0z" stroke="#e73635"></path><path d="M1095.13 57.15L1130.04 57.15L1130.04 89.46L1095.13 89.46z" stroke="#d3b714"></path><path d="M826.69 455.7L854.28 455.7L854.28 457.16L826.69 457.16z" fill="#d3b714"></path><path d="M1117.4 71.69L1169.27 71.69L1169.27 108.15L1117.4 108.15z" stroke="#037b0b"></path><path d="M666.41 298.33 a32.81 32.81 0 1 0 65.62 0 a32.81 32.81 0 1 0 -65.62 0z" fill="#e73635"></path><path d="M217.47 221.15L257.38 221.15L257.38 247.2L217.47 247.2z" fill="#037b0b"></path><path d="M700.55 56.38L716.97 56.38L716.97 82.07L700.55 82.07z" stroke="#e73635"></path><path d="M553.43 311.7L570.93 311.7L570.93 323.72L553.43 323.72z" stroke="#d3b714"></path><path d="M31.45 217.58 a14.27 14.27 0 1 0 28.54 0 a14.27 14.27 0 1 0 -28.54 0z" fill="#d3b714"></path><path d="M1058.94 199.3 a19.99 19.99 0 1 0 39.98 0 a19.99 19.99 0 1 0 -39.98 0z" stroke="#d3b714"></path><path d="M1370.87 340.83a28.27 28.27 0 1 0-16.8-53.98z" stroke="#d3b714"></path><path d="M488.37 10.98L533.91 10.98L533.91 56.52L488.37 56.52z" stroke="#037b0b"></path><path d="M1127.05 285.47L1151.89 285.47L1151.89 321.11L1127.05 321.11z" stroke="#d3b714"></path><path d="M596.39 126.48L629.56 126.48L629.56 159.65L596.39 159.65z" stroke="#037b0b"></path><path d="M168.56 294.03L203.8 294.03L203.8 329.27L168.56 329.27z" fill="#d3b714"></path><path d="M328.62 424.31 a2.87 2.87 0 1 0 5.74 0 a2.87 2.87 0 1 0 -5.74 0z" fill="#037b0b"></path><path d="M1080.35 309.02L1131.73 309.02L1131.73 360.4L1080.35 360.4z" fill="#d3b714"></path><path d="M554.31 221.57L571.53 221.57L571.53 238.79L554.31 238.79z" stroke="#037b0b"></path><path d="M1224.69 8.29L1253.93 8.29L1253.93 11.17L1224.69 11.17z" fill="#e73635"></path><path d="M54.6 313.54 a48.74 48.74 0 1 0 97.48 0 a48.74 48.74 0 1 0 -97.48 0z" stroke="#e73635"></path><path d="M1106.91 400.89L1115.4 400.89L1115.4 409.38L1106.91 409.38z" stroke="#037b0b"></path><path d="M612.3 97.54 a29.59 29.59 0 1 0 59.18 0 a29.59 29.59 0 1 0 -59.18 0z" stroke="#e73635"></path><path d="M1102.33 500.07 a55.3 55.3 0 1 0 110.6 0 a55.3 55.3 0 1 0 -110.6 0z" fill="#d3b714"></path><path d="M1232.68 490.77 a9.37 9.37 0 1 0 18.74 0 a9.37 9.37 0 1 0 -18.74 0z" stroke="#e73635"></path><path d="M1170.09 162.83L1178.14 162.83L1178.14 166.45L1170.09 166.45z" stroke="#e73635"></path><path d="M1203.68 350.46a40.63 40.63 0 1 0-3.46 81.19z" stroke="#e73635"></path><path d="M300.49 463.57L337.18 463.57L337.18 475.49L300.49 475.49z" stroke="#037b0b"></path><path d="M642.57 176.78L643.86 176.78L643.86 178.07L642.57 178.07z" stroke="#d3b714"></path><path d="M211.01 286.29L259.29 286.29L259.29 334.57L211.01 334.57z" fill="#e73635"></path><path d="M234.34 511.25L273.21 511.25L273.21 519.81L234.34 519.81z" stroke="#d3b714"></path><path d="M640.23 204.18 a26.8 26.8 0 1 0 53.6 0 a26.8 26.8 0 1 0 -53.6 0z" stroke="#037b0b"></path></g><defs><mask id="SvgjsMask1027"><rect width="1440" height="560" fill="#ffffff"></rect></mask></defs></svg>