<svg xmlns="http://www.w3.org/2000/svg" version="1.1" xmlns:xlink="http://www.w3.org/1999/xlink" xmlns:svgjs="http://svgjs.com/svgjs" width="1440" height="560" preserveAspectRatio="none" viewBox="0 0 1440 560"><g mask="url(&quot;#SvgjsMask1004&quot;)" fill="none"><rect width="1440" height="560" x="0" y="0" fill="#0e2a47"></rect><path d="M744.68 10.66 a49.83 49.83 0 1 0 99.66 0 a49.83 49.83 0 1 0 -99.66 0z" stroke="#d3b714"></path><path d="M1384.14 209.29L1422.09 209.29L1422.09 212.64L1384.14 212.64z" fill="#d3b714"></path><path d="M587.32 372.19L635.94 372.19L635.94 404.11L587.32 404.11z" stroke="#e73635"></path><path d="M426.6 249.82L436.98 249.82L436.98 260.2L426.6 260.2z" stroke="#d3b714"></path><path d="M217.05 14.5a3.32 3.32 0 1 0 6.19 2.4z" fill="#e73635"></path><path d="M196.67 308.13L233.66 308.13L233.66 345.12L196.67 345.12z" fill="#037b0b"></path><path d="M235.48 12.51L260 12.51L260 21.91L235.48 21.91z" stroke="#d3b714"></path><path d="M157.79 46.37a12.35 12.35 0 1 0-12.59 21.25z" fill="#d3b714"></path><path d="M1225.96 484L1278.92 484L1278.92 536.96L1225.96 536.96z" stroke="#037b0b"></path><path d="M1172.18 429.34L1216.64 429.34L1216.64 440.92L1172.18 440.92z" stroke="#e73635"></path><path d="M686.21 323.76 a1.83 1.83 0 1 0 3.66 0 a1.83 1.83 0 1 0 -3.66 0z" fill="#e73635"></path><path d="M534.53 433.07 a15.16 15.16 0 1 0 30.32 0 a15.16 15.16 0 1 0 -30.32 0z" fill="#037b0b"></path><path d="M805.86 57.62a19.05 19.05 0 1 0-37.7-5.49z" stroke="#d3b714"></path><path d="M153.27 406.36L208.72 406.36L208.72 420.95L153.27 420.95z" stroke="#d3b714"></path><path d="M559.15 91.3L577.65 91.3L577.65 114.67L559.15 114.67z" stroke="#d3b714"></path><path d="M241.78 136.57 a54.34 54.34 0 1 0 108.68 0 a54.34 54.34 0 1 0 -108.68 0z" stroke="#037b0b"></path><path d="M1231.44 17.53L1255.94 17.53L1255.94 42.03L1231.44 42.03z" fill="#037b0b"></path><path d="M1213.3 165.37a1.31 1.31 0 1 0-1.79-1.91z" stroke="#d3b714"></path><path d="M610.34 89.1 a18.48 18.48 0 1 0 36.96 0 a18.48 18.48 0 1 0 -36.96 0z" fill="#d3b714"></path><path d="M356.84 315.17L374.28 315.17L374.28 333.17L356.84 333.17z" fill="#d3b714"></path><path d="M119.27 352.11a36.47 36.47 0 1 0-72.86-3.42z" fill="#d3b714"></path><path d="M35.07 84.19L56.93 84.19L56.93 125.34L35.07 125.34z" fill="#d3b714"></path><path d="M853.13 533.09L860.31 533.09L860.31 563.96L853.13 563.96z" fill="#d3b714"></path><path d="M1105.85 82.42 a46.45 46.45 0 1 0 92.9 0 a46.45 46.45 0 1 0 -92.9 0z" fill="#e73635"></path><path d="M258.58 125.29a34.43 34.43 0 1 0-67.33 14.42z" fill="#d3b714"></path><path d="M579.25 202.31a34.59 34.59 0 1 0 68.92-6.02z" fill="#037b0b"></path><path d="M621.62 134.67 a6.81 6.81 0 1 0 13.62 0 a6.81 6.81 0 1 0 -13.62 0z" stroke="#d3b714"></path><path d="M518.84 238.15L521.4 238.15L521.4 239.17L518.84 239.17z" stroke="#d3b714"></path><path d="M354.41 489 a9.61 9.61 0 1 0 19.22 0 a9.61 9.61 0 1 0 -19.22 0z" fill="#037b0b"></path><path d="M465.21 497.53 a48.54 48.54 0 1 0 97.08 0 a48.54 48.54 0 1 0 -97.08 0z" stroke="#e73635"></path><path d="M781.12 442.43L820.12 442.43L820.12 480.01L781.12 480.01z" fill="#e73635"></path><path d="M1114.46 528.95 a40.73 40.73 0 1 0 81.46 0 a40.73 40.73 0 1 0 -81.46 0z" stroke="#d3b714"></path><path d="M1356.22 189.93L1410.98 189.93L1410.98 219.7L1356.22 219.7z" fill="#e73635"></path></g><defs><mask id="SvgjsMask1004"><rect width="1440" height="560" fill="#ffffff"></rect></mask></defs></svg>