<svg xmlns="http://www.w3.org/2000/svg" version="1.1" xmlns:xlink="http://www.w3.org/1999/xlink" xmlns:svgjs="http://svgjs.com/svgjs" width="1440" height="560" preserveAspectRatio="none" viewBox="0 0 1440 560"><g mask="url(&quot;#SvgjsMask1036&quot;)" fill="none"><rect width="1440" height="560" x="0" y="0" fill="#0e2a47"></rect><path d="M772.76-6.34a16.89 16.89 0 1 0-8.67 32.65z" stroke="#e73635"></path><path d="M642.14 483.44L667.33 483.44L667.33 537.08L642.14 537.08z" stroke="#e73635"></path><path d="M49.37 437.35L66.87 437.35L66.87 454.85L49.37 454.85z" stroke="#037b0b"></path><path d="M126.35 250.77 a52.83 52.83 0 1 0 105.66 0 a52.83 52.83 0 1 0 -105.66 0z" stroke="#e73635"></path><path d="M398.32 128.95a51.05 51.05 0 1 0 32.84 96.67z" fill="#037b0b"></path><path d="M1337.7 78.86a15.31 15.31 0 1 0 3.32-30.44z" fill="#037b0b"></path><path d="M658.11 96.63a10.21 10.21 0 1 0 8.09 18.75z" fill="#d3b714"></path><path d="M1198.02 231.5a23.26 23.26 0 1 0-15.44-43.88z" stroke="#e73635"></path><path d="M1345.86 235.94L1364.37 235.94L1364.37 254.45L1345.86 254.45z" stroke="#d3b714"></path><path d="M734.84 515.84 a27.73 27.73 0 1 0 55.46 0 a27.73 27.73 0 1 0 -55.46 0z" stroke="#037b0b"></path><path d="M178.79 79.47 a14.39 14.39 0 1 0 28.78 0 a14.39 14.39 0 1 0 -28.78 0z" stroke="#e73635"></path><path d="M694.65 130.04L723.37 130.04L723.37 169.11L694.65 169.11z" stroke="#e73635"></path><path d="M1429.75 351.66L1463.81 351.66L1463.81 363.73L1429.75 363.73z" stroke="#d3b714"></path><path d="M233.7 218.66 a54.5 54.5 0 1 0 109 0 a54.5 54.5 0 1 0 -109 0z" fill="#d3b714"></path><path d="M1293.94 537.53a0.57 0.57 0 1 0 0.02 1.14z" fill="#d3b714"></path><path d="M1339.01 231.99a52.25 52.25 0 1 0 49.43 92.07z" stroke="#037b0b"></path><path d="M749.7 161 a8.85 8.85 0 1 0 17.7 0 a8.85 8.85 0 1 0 -17.7 0z" stroke="#e73635"></path><path d="M1159.12 356.39a49.91 49.91 0 1 0 91.6-39.68z" fill="#e73635"></path><path d="M426.3 302.05a24.74 24.74 0 1 0-47.57 13.61z" stroke="#d3b714"></path><path d="M288.29 371.43a15.2 15.2 0 1 0-22.68-20.24z" stroke="#037b0b"></path><path d="M1102.88 74.35 a26.12 26.12 0 1 0 52.24 0 a26.12 26.12 0 1 0 -52.24 0z" fill="#d3b714"></path><path d="M567.87 28.09L569.69 28.09L569.69 29.91L567.87 29.91z" stroke="#d3b714"></path><path d="M1010.87 497.11L1066.55 497.11L1066.55 552.79L1010.87 552.79z" fill="#e73635"></path><path d="M925.1 444.83L979.71 444.83L979.71 499.44L925.1 499.44z" fill="#037b0b"></path><path d="M1105.74 268.16a24.05 24.05 0 1 0 37.84-29.7z" stroke="#037b0b"></path><path d="M972.37 242.04L991.7 242.04L991.7 245.89L972.37 245.89z" fill="#d3b714"></path><path d="M194.78 468.65a21.69 21.69 0 1 0-42.54 8.49z" fill="#037b0b"></path><path d="M684.32 420.87L720.75 420.87L720.75 457.3L684.32 457.3z" fill="#e73635"></path><path d="M6.94 465.39L60.06 465.39L60.06 518.51L6.94 518.51z" fill="#d3b714"></path><path d="M892.95 163.67a40.31 40.31 0 1 0 28.16-75.54z" fill="#d3b714"></path><path d="M1208.18 537.83 a23.42 23.42 0 1 0 46.84 0 a23.42 23.42 0 1 0 -46.84 0z" stroke="#037b0b"></path><path d="M1257.49 482.68a34.23 34.23 0 1 0-68.19-6.05z" fill="#037b0b"></path><path d="M993.03 227.21L1040.59 227.21L1040.59 274.77L993.03 274.77z" fill="#037b0b"></path></g><defs><mask id="SvgjsMask1036"><rect width="1440" height="560" fill="#ffffff"></rect></mask></defs></svg>