<svg xmlns="http://www.w3.org/2000/svg" version="1.1" xmlns:xlink="http://www.w3.org/1999/xlink" xmlns:svgjs="http://svgjs.com/svgjs" width="1440" height="560" preserveAspectRatio="none" viewBox="0 0 1440 560"><g mask="url(&quot;#SvgjsMask1025&quot;)" fill="none"><rect width="1440" height="560" x="0" y="0" fill="#0e2a47"></rect><path d="M318.77 28.69 a10.28 10.28 0 1 0 20.56 0 a10.28 10.28 0 1 0 -20.56 0z" stroke="#e73635"></path><path d="M902.74 369.86L952.98 369.86L952.98 420.1L902.74 420.1z" fill="#d3b714"></path><path d="M513.8 63.69L545.1 63.69L545.1 94.99L513.8 94.99z" fill="#d3b714"></path><path d="M901.45 35.05L937.84 35.05L937.84 71.44L901.45 71.44z" stroke="#037b0b"></path><path d="M28.92 166.04L55.75 166.04L55.75 192.86L28.92 192.86z" fill="#d3b714"></path><path d="M1015.48 553.53L1043.86 553.53L1043.86 592.8L1015.48 592.8z" stroke="#e73635"></path><path d="M1314.05 366.88 a29.09 29.09 0 1 0 58.18 0 a29.09 29.09 0 1 0 -58.18 0z" stroke="#d3b714"></path><path d="M628.92 547.11L649.23 547.11L649.23 567.42L628.92 567.42z" stroke="#d3b714"></path><path d="M714.64 527.78a22.84 22.84 0 1 0-6.08 45.27z" stroke="#037b0b"></path><path d="M191.82 108.01a24.45 24.45 0 1 0-20.3 44.49z" fill="#037b0b"></path><path d="M68.03 296.74L86.2 296.74L86.2 310.22L68.03 310.22z" stroke="#d3b714"></path><path d="M1089.46 362.86a18.45 18.45 0 1 0 10.11-35.49z" fill="#037b0b"></path><path d="M857.16 198.96L862.52 198.96L862.52 204.32L857.16 204.32z" stroke="#e73635"></path><path d="M913.01 541.57 a45 45 0 1 0 90 0 a45 45 0 1 0 -90 0z" fill="#d3b714"></path><path d="M165.11 17.59a2.94 2.94 0 1 0 4.78-3.42z" fill="#e73635"></path><path d="M47.27 34.96a27.66 27.66 0 1 0 49.72 24.25z" fill="#037b0b"></path><path d="M696.26 516.47 a21.18 21.18 0 1 0 42.36 0 a21.18 21.18 0 1 0 -42.36 0z" stroke="#d3b714"></path><path d="M826.49 230.13a28.11 28.11 0 1 0-44.97 33.74z" fill="#d3b714"></path><path d="M311.2 385.08L339.17 385.08L339.17 416.75L311.2 416.75z" fill="#037b0b"></path><path d="M210.9 521.54 a13.37 13.37 0 1 0 26.74 0 a13.37 13.37 0 1 0 -26.74 0z" stroke="#037b0b"></path><path d="M1305.92 497.58 a35.98 35.98 0 1 0 71.96 0 a35.98 35.98 0 1 0 -71.96 0z" fill="#e73635"></path><path d="M1331.91 177.28 a27.73 27.73 0 1 0 55.46 0 a27.73 27.73 0 1 0 -55.46 0z" fill="#037b0b"></path><path d="M420.76 144.32 a28.3 28.3 0 1 0 56.6 0 a28.3 28.3 0 1 0 -56.6 0z" stroke="#d3b714"></path><path d="M1146.4 355.62a6.01 6.01 0 1 0-4.81-11.02z" fill="#037b0b"></path><path d="M1423.93 35.46 a15.39 15.39 0 1 0 30.78 0 a15.39 15.39 0 1 0 -30.78 0z" fill="#d3b714"></path><path d="M1254.52 535.22L1308.75 535.22L1308.75 561.74L1254.52 561.74z" stroke="#d3b714"></path><path d="M169.16 211.55a37.6 37.6 0 1 0-73.44 16.2z" stroke="#e73635"></path><path d="M1118.44 455.5L1151.49 455.5L1151.49 462.52L1118.44 462.52z" stroke="#d3b714"></path><path d="M1091.43 334.14L1091.88 334.14L1091.88 334.59L1091.43 334.59z" stroke="#e73635"></path><path d="M1141.85 431.89a42.36 42.36 0 1 0 40.28 74.53z" fill="#037b0b"></path><path d="M729.29 99.32L735.08 99.32L735.08 124.79L729.29 124.79z" fill="#e73635"></path><path d="M184.41 344.54L220.16 344.54L220.16 380.29L184.41 380.29z" fill="#037b0b"></path><path d="M175.83 85.98 a42.05 42.05 0 1 0 84.1 0 a42.05 42.05 0 1 0 -84.1 0z" stroke="#037b0b"></path></g><defs><mask id="SvgjsMask1025"><rect width="1440" height="560" fill="#ffffff"></rect></mask></defs></svg>