<svg xmlns="http://www.w3.org/2000/svg" version="1.1" xmlns:xlink="http://www.w3.org/1999/xlink" xmlns:svgjs="http://svgjs.com/svgjs" width="1440" height="560" preserveAspectRatio="none" viewBox="0 0 1440 560"><g mask="url(&quot;#SvgjsMask1010&quot;)" fill="none"><rect width="1440" height="560" x="0" y="0" fill="#0e2a47"></rect><path d="M1286.54 439.17a20.38 20.38 0 1 0-25.37 31.9z" stroke="#037b0b"></path><path d="M140.09 217.73a2.49 2.49 0 1 0-1.27-4.81z" fill="#e73635"></path><path d="M1258.51 469.71L1261.28 469.71L1261.28 472.48L1258.51 472.48z" fill="#e73635"></path><path d="M1391.28 411.51L1443.22 411.51L1443.22 422.64L1391.28 422.64z" stroke="#d3b714"></path><path d="M844.83 176.34a24.42 24.42 0 1 0 35.25-33.8z" fill="#037b0b"></path><path d="M664.75 427.12 a2.93 2.93 0 1 0 5.86 0 a2.93 2.93 0 1 0 -5.86 0z" stroke="#e73635"></path><path d="M357.12 530.46L376.45 530.46L376.45 549.79L357.12 549.79z" fill="#d3b714"></path><path d="M933.16 117.96L944.17 117.96L944.17 128.97L933.16 128.97z" stroke="#037b0b"></path><path d="M936.36 301.31a12.19 12.19 0 1 0-24.38 0.02z" fill="#e73635"></path><path d="M871.94 45.39L879.81 45.39L879.81 49.14L871.94 49.14z" stroke="#037b0b"></path><path d="M970.54 410.29 a7.8 7.8 0 1 0 15.6 0 a7.8 7.8 0 1 0 -15.6 0z" stroke="#037b0b"></path><path d="M1092.66 149.19L1114 149.19L1114 170.53L1092.66 170.53z" fill="#d3b714"></path><path d="M89.61 418.34L131.32 418.34L131.32 457.52L89.61 457.52z" stroke="#e73635"></path><path d="M1345.39 36.2L1359.51 36.2L1359.51 50.32L1345.39 50.32z" stroke="#d3b714"></path><path d="M161.79 242.37 a28.09 28.09 0 1 0 56.18 0 a28.09 28.09 0 1 0 -56.18 0z" stroke="#d3b714"></path><path d="M1280.24 556.97L1287.78 556.97L1287.78 564.51L1280.24 564.51z" fill="#d3b714"></path><path d="M1108.75 507.62 a50.73 50.73 0 1 0 101.46 0 a50.73 50.73 0 1 0 -101.46 0z" stroke="#037b0b"></path><path d="M420.04 373.35a11.63 11.63 0 1 0-22.44 6.11z" fill="#e73635"></path><path d="M523.97 418.12L547.11 418.12L547.11 433.03L523.97 433.03z" fill="#d3b714"></path><path d="M203.7 316.02a18.26 18.26 0 1 0-10.89-34.86z" fill="#037b0b"></path><path d="M598.12 430.06L621.86 430.06L621.86 453.8L598.12 453.8z" fill="#d3b714"></path><path d="M76.5 128.81L99.05 128.81L99.05 151.36L76.5 151.36z" stroke="#d3b714"></path><path d="M1290.41 195.16L1291.95 195.16L1291.95 196.7L1290.41 196.7z" stroke="#e73635"></path><path d="M1098 448.76L1100.44 448.76L1100.44 484.29L1098 484.29z" stroke="#037b0b"></path><path d="M1001.6 328.79L1020.43 328.79L1020.43 347.62L1001.6 347.62z" fill="#037b0b"></path><path d="M155.23 250.95L204.61 250.95L204.61 286.33L155.23 286.33z" fill="#e73635"></path><path d="M1062.61 168.3L1116.77 168.3L1116.77 169.08L1062.61 169.08z" stroke="#d3b714"></path><path d="M322.63 472.77L349.67 472.77L349.67 523.44L322.63 523.44z" stroke="#e73635"></path><path d="M742.63 391.48L777.19 391.48L777.19 411.28L742.63 411.28z" fill="#d3b714"></path><path d="M190.37 45.34L225.39 45.34L225.39 83.19L190.37 83.19z" fill="#d3b714"></path><path d="M1332.26 335.36a52.44 52.44 0 1 0 95.8 42.67z" fill="#037b0b"></path><path d="M642.33 383.27 a24.52 24.52 0 1 0 49.04 0 a24.52 24.52 0 1 0 -49.04 0z" stroke="#d3b714"></path><path d="M969.83 542.76 a5.37 5.37 0 1 0 10.74 0 a5.37 5.37 0 1 0 -10.74 0z" fill="#037b0b"></path></g><defs><mask id="SvgjsMask1010"><rect width="1440" height="560" fill="#ffffff"></rect></mask></defs></svg>