<svg xmlns="http://www.w3.org/2000/svg" version="1.1" xmlns:xlink="http://www.w3.org/1999/xlink" xmlns:svgjs="http://svgjs.com/svgjs" width="1440" height="560" preserveAspectRatio="none" viewBox="0 0 1440 560"><g mask="url(&quot;#SvgjsMask1023&quot;)" fill="none"><rect width="1440" height="560" x="0" y="0" fill="#0e2a47"></rect><path d="M1416.73 410.44L1462.4 410.44L1462.4 452.62L1416.73 452.62z" stroke="#e73635"></path><path d="M1198.26 233.92L1235.69 233.92L1235.69 234.44L1198.26 234.44z" stroke="#d3b714"></path><path d="M173.37 497.18a1.52 1.52 0 1 0-1.3 2.75z" fill="#d3b714"></path><path d="M420.11 170.97L433.2 170.97L433.2 184.06L420.11 184.06z" stroke="#037b0b"></path><path d="M1136.69 239.21 a51.75 51.75 0 1 0 103.5 0 a51.75 51.75 0 1 0 -103.5 0z" fill="#d3b714"></path><path d="M799.56 68.34L823.73 68.34L823.73 92.51L799.56 92.51z" fill="#d3b714"></path><path d="M220.12 266.5 a2.79 2.79 0 1 0 5.58 0 a2.79 2.79 0 1 0 -5.58 0z" fill="#d3b714"></path><path d="M257.42 377.27L266.63 377.27L266.63 386.48L257.42 386.48z" fill="#037b0b"></path><path d="M854.39 357.13L891.18 357.13L891.18 393.92L854.39 393.92z" stroke="#d3b714"></path><path d="M559.82 140.97L596.84 140.97L596.84 177.99L559.82 177.99z" stroke="#e73635"></path><path d="M404.21 82.53L440.27 82.53L440.27 131.65L404.21 131.65z" fill="#e73635"></path><path d="M1188.27 359.54L1208.09 359.54L1208.09 380.71L1188.27 380.71z" stroke="#e73635"></path><path d="M110.36 170.32 a8.84 8.84 0 1 0 17.68 0 a8.84 8.84 0 1 0 -17.68 0z" fill="#e73635"></path><path d="M918.83 59.1 a16.89 16.89 0 1 0 33.78 0 a16.89 16.89 0 1 0 -33.78 0z" fill="#037b0b"></path><path d="M1129.54 19.35L1137.1 19.35L1137.1 69.68L1129.54 69.68z" fill="#e73635"></path><path d="M939.34 215.98a5.47 5.47 0 1 0 9.62-5.22z" stroke="#e73635"></path><path d="M377.88 158.46 a20.93 20.93 0 1 0 41.86 0 a20.93 20.93 0 1 0 -41.86 0z" fill="#037b0b"></path><path d="M1310.7 376.6a19.8 19.8 0 1 0-8.53-38.67z" stroke="#e73635"></path><path d="M385.56 463.96L416.05 463.96L416.05 505.97L385.56 505.97z" fill="#e73635"></path><path d="M1055.63 329.92L1092.2 329.92L1092.2 366.49L1055.63 366.49z" fill="#d3b714"></path><path d="M195.59 149.44a27.78 27.78 0 1 0-35.43 42.79z" stroke="#037b0b"></path><path d="M269.87 191.96L273.67 191.96L273.67 202L269.87 202z" fill="#d3b714"></path><path d="M1028.69 173.38 a24.79 24.79 0 1 0 49.58 0 a24.79 24.79 0 1 0 -49.58 0z" stroke="#e73635"></path><path d="M1303.86 440.34 a14.35 14.35 0 1 0 28.7 0 a14.35 14.35 0 1 0 -28.7 0z" stroke="#e73635"></path><path d="M873.73 393.7L925.62 393.7L925.62 432.41L873.73 432.41z" stroke="#d3b714"></path><path d="M807.74 41.08 a43.21 43.21 0 1 0 86.42 0 a43.21 43.21 0 1 0 -86.42 0z" fill="#d3b714"></path><path d="M875.19 424.32L915.66 424.32L915.66 438.24L875.19 438.24z" fill="#037b0b"></path><path d="M501.84 197.86L542.18 197.86L542.18 238.2L501.84 238.2z" fill="#d3b714"></path><path d="M812.94 427.25L836.4 427.25L836.4 470.08L812.94 470.08z" fill="#037b0b"></path><path d="M160.79 367.93a53.41 53.41 0 1 0 43.84 97.41z" stroke="#e73635"></path><path d="M91.19 237.6L135.53 237.6L135.53 286.01L91.19 286.01z" stroke="#e73635"></path><path d="M214.85 126.29L255.2 126.29L255.2 157.77L214.85 157.77z" stroke="#e73635"></path><path d="M408.79 500.6L427.75 500.6L427.75 551.88L408.79 551.88z" stroke="#037b0b"></path></g><defs><mask id="SvgjsMask1023"><rect width="1440" height="560" fill="#ffffff"></rect></mask></defs></svg>