<svg xmlns="http://www.w3.org/2000/svg" version="1.1" xmlns:xlink="http://www.w3.org/1999/xlink" xmlns:svgjs="http://svgjs.com/svgjs" width="1440" height="560" preserveAspectRatio="none" viewBox="0 0 1440 560"><g mask="url(&quot;#SvgjsMask1018&quot;)" fill="none"><rect width="1440" height="560" x="0" y="0" fill="#0e2a47"></rect><path d="M205.35 467.19a55.21 55.21 0 1 0-59.79-92.83z" fill="#e73635"></path><path d="M667.43 492.23 a41.76 41.76 0 1 0 83.52 0 a41.76 41.76 0 1 0 -83.52 0z" stroke="#d3b714"></path><path d="M464.82 256.35L477.44 256.35L477.44 268.97L464.82 268.97z" fill="#d3b714"></path><path d="M411.03 247.98 a53.24 53.24 0 1 0 106.48 0 a53.24 53.24 0 1 0 -106.48 0z" stroke="#e73635"></path><path d="M1274.11 451.66a23.6 23.6 0 1 0 16.27 44.3z" fill="#e73635"></path><path d="M682.97 243.1L693.25 243.1L693.25 253.38L682.97 253.38z" fill="#d3b714"></path><path d="M1358.08 393.61L1374.85 393.61L1374.85 410.38L1358.08 410.38z" fill="#e73635"></path><path d="M109.04 89.35L116.21 89.35L116.21 96.52L109.04 96.52z" fill="#037b0b"></path><path d="M248.88 43.25 a55.42 55.42 0 1 0 110.84 0 a55.42 55.42 0 1 0 -110.84 0z" stroke="#d3b714"></path><path d="M1260.46 508.41 a20.29 20.29 0 1 0 40.58 0 a20.29 20.29 0 1 0 -40.58 0z" fill="#037b0b"></path><path d="M812.78 142.34L853.2 142.34L853.2 176.68L812.78 176.68z" stroke="#037b0b"></path><path d="M894.44 149.47 a32.98 32.98 0 1 0 65.96 0 a32.98 32.98 0 1 0 -65.96 0z" stroke="#d3b714"></path><path d="M210.1 330.01L219.53 330.01L219.53 339.44L210.1 339.44z" fill="#d3b714"></path><path d="M505.67 95.32a31.37 31.37 0 1 0-27.65 56.32z" stroke="#037b0b"></path><path d="M802.56 334.49L841.1 334.49L841.1 361.66L802.56 361.66z" fill="#037b0b"></path><path d="M754.64 536.29 a9.51 9.51 0 1 0 19.02 0 a9.51 9.51 0 1 0 -19.02 0z" stroke="#e73635"></path><path d="M784.66 484.28a8.09 8.09 0 1 0-13.54-8.86z" fill="#d3b714"></path><path d="M635.67 31.91a44.46 44.46 0 1 0-23.36 85.8z" stroke="#d3b714"></path><path d="M839.63 475.82a41.39 41.39 0 1 0 0.73-82.78z" stroke="#e73635"></path><path d="M727.66 371.71 a15.03 15.03 0 1 0 30.06 0 a15.03 15.03 0 1 0 -30.06 0z" fill="#d3b714"></path><path d="M472.2 500.67L509.75 500.67L509.75 537.73L472.2 537.73z" stroke="#e73635"></path><path d="M532.48 256.57L544.54 256.57L544.54 306.4L532.48 306.4z" stroke="#d3b714"></path><path d="M364.25 103.28L396.14 103.28L396.14 125.27L364.25 125.27z" stroke="#e73635"></path><path d="M729.14 365 a50.71 50.71 0 1 0 101.42 0 a50.71 50.71 0 1 0 -101.42 0z" stroke="#d3b714"></path><path d="M1227.88 460.25a41.41 41.41 0 1 0-80.93-17.61z" stroke="#d3b714"></path><path d="M690.77 507.37L725.47 507.37L725.47 553.59L690.77 553.59z" fill="#e73635"></path><path d="M129.77 142.78L162.81 142.78L162.81 175.82L129.77 175.82z" fill="#037b0b"></path><path d="M367.37 214L388.51 214L388.51 235.14L367.37 235.14z" fill="#d3b714"></path><path d="M194 84.96a10.98 10.98 0 1 0 19.38-10.34z" fill="#037b0b"></path><path d="M1046.74 229.19a20.78 20.78 0 1 0-30.24 28.51z" stroke="#e73635"></path><path d="M1004.59 26.17L1059.88 26.17L1059.88 79.04L1004.59 79.04z" fill="#e73635"></path><path d="M328.43 434.64L381.86 434.64L381.86 458.71L328.43 458.71z" fill="#e73635"></path><path d="M1252.17 390.16a42.29 42.29 0 1 0 70.32-47z" fill="#e73635"></path></g><defs><mask id="SvgjsMask1018"><rect width="1440" height="560" fill="#ffffff"></rect></mask></defs></svg>