<svg xmlns="http://www.w3.org/2000/svg" version="1.1" xmlns:xlink="http://www.w3.org/1999/xlink" xmlns:svgjs="http://svgjs.com/svgjs" width="1440" height="560" preserveAspectRatio="none" viewBox="0 0 1440 560"><g mask="url(&quot;#SvgjsMask1029&quot;)" fill="none"><rect width="1440" height="560" x="0" y="0" fill="#0e2a47"></rect><path d="M709.07 521.82a55.56 55.56 0 1 0 109.26-20.23z" fill="#d3b714"></path><path d="M313.15 200.96a26.45 26.45 0 1 0 26.13 45.99z" fill="#d3b714"></path><path d="M733.06 256.66a11.59 11.59 0 1 0-5.79 22.45z" stroke="#e73635"></path><path d="M301 236.7 a13.79 13.79 0 1 0 27.58 0 a13.79 13.79 0 1 0 -27.58 0z" fill="#d3b714"></path><path d="M849.98 42.22a31.02 31.02 0 1 0 0.78-62.04z" fill="#037b0b"></path><path d="M76.96 539.77L96.56 539.77L96.56 592.2L76.96 592.2z" fill="#037b0b"></path><path d="M1093.99 253.01a43.11 43.11 0 1 0 85.92 7.1z" fill="#037b0b"></path><path d="M511.18 71.76L541.9 71.76L541.9 126.78L511.18 126.78z" fill="#e73635"></path><path d="M444.22 327.23L447.82 327.23L447.82 356.38L444.22 356.38z" stroke="#e73635"></path><path d="M807.81 471.19 a8.34 8.34 0 1 0 16.68 0 a8.34 8.34 0 1 0 -16.68 0z" fill="#037b0b"></path><path d="M1017.06 280.83L1063.94 280.83L1063.94 327.79L1017.06 327.79z" fill="#037b0b"></path><path d="M1073.4 306.47L1078.73 306.47L1078.73 311.8L1073.4 311.8z" fill="#037b0b"></path><path d="M471.61 203.27 a17.79 17.79 0 1 0 35.58 0 a17.79 17.79 0 1 0 -35.58 0z" fill="#e73635"></path><path d="M443.84 442.06 a47.93 47.93 0 1 0 95.86 0 a47.93 47.93 0 1 0 -95.86 0z" stroke="#d3b714"></path><path d="M508.05 512.6L563.35 512.6L563.35 536.47L508.05 536.47z" fill="#d3b714"></path><path d="M561.44 552.94L605.64 552.94L605.64 597.14L561.44 597.14z" stroke="#037b0b"></path><path d="M898.15 148.5L951.22 148.5L951.22 174.86L898.15 174.86z" fill="#d3b714"></path><path d="M1268.24 198.16L1278.05 198.16L1278.05 230.62L1268.24 230.62z" fill="#e73635"></path><path d="M599.34 252.19L614.34 252.19L614.34 291.71L599.34 291.71z" fill="#037b0b"></path><path d="M1401.75 468.81a53.27 53.27 0 1 0 45.21-96.48z" fill="#d3b714"></path><path d="M179.42 450.95L198.28 450.95L198.28 469.81L179.42 469.81z" stroke="#d3b714"></path><path d="M320.91 211.19 a53.06 53.06 0 1 0 106.12 0 a53.06 53.06 0 1 0 -106.12 0z" stroke="#e73635"></path><path d="M299.27 195.23 a11.46 11.46 0 1 0 22.92 0 a11.46 11.46 0 1 0 -22.92 0z" fill="#e73635"></path><path d="M912.88 19.34L928.65 19.34L928.65 35.11L912.88 35.11z" stroke="#d3b714"></path><path d="M175.87 22.46L223.12 22.46L223.12 41.06L175.87 41.06z" stroke="#d3b714"></path><path d="M241.44 332.95a15.74 15.74 0 1 0 22.7 21.82z" fill="#d3b714"></path><path d="M378.8 4.55L425.18 4.55L425.18 50.93L378.8 50.93z" fill="#037b0b"></path><path d="M1074.99 519.92a5.69 5.69 0 1 0-11.19 2.08z" stroke="#d3b714"></path><path d="M532.69 292.91L573.81 292.91L573.81 334.03L532.69 334.03z" stroke="#d3b714"></path><path d="M1286.66 380L1314.44 380L1314.44 396.72L1286.66 396.72z" stroke="#e73635"></path><path d="M261.85 281.04 a17.34 17.34 0 1 0 34.68 0 a17.34 17.34 0 1 0 -34.68 0z" fill="#d3b714"></path><path d="M1239.58 234.53L1289.91 234.53L1289.91 261.33L1239.58 261.33z" fill="#e73635"></path><path d="M277.94 81.94a20.42 20.42 0 1 0-32.6 24.61z" fill="#e73635"></path></g><defs><mask id="SvgjsMask1029"><rect width="1440" height="560" fill="#ffffff"></rect></mask></defs></svg>