<svg xmlns="http://www.w3.org/2000/svg" version="1.1" xmlns:xlink="http://www.w3.org/1999/xlink" xmlns:svgjs="http://svgjs.com/svgjs" width="1440" height="560" preserveAspectRatio="none" viewBox="0 0 1440 560"><g mask="url(&quot;#SvgjsMask1016&quot;)" fill="none"><rect width="1440" height="560" x="0" y="0" fill="#0e2a47"></rect><path d="M517.62 120.73L557.83 120.73L557.83 123.41L517.62 123.41z" stroke="#d3b714"></path><path d="M798.55 394.33L843.83 394.33L843.83 439.61L798.55 439.61z" stroke="#d3b714"></path><path d="M231.08 495.31 a25.95 25.95 0 1 0 51.9 0 a25.95 25.95 0 1 0 -51.9 0z" fill="#e73635"></path><path d="M963.83 291.78L992.4 291.78L992.4 295.15L963.83 295.15z" stroke="#037b0b"></path><path d="M970.25 451.28L988.48 451.28L988.48 455.92L970.25 455.92z" stroke="#e73635"></path><path d="M506.34 276.45L517.59 276.45L517.59 311.69L506.34 311.69z" stroke="#037b0b"></path><path d="M427.71 442.53a32.43 32.43 0 1 0 45.4 46.32z" fill="#e73635"></path><path d="M61.09 130a55.03 55.03 0 1 0 105.04 32.86z" fill="#e73635"></path><path d="M484.05 38.33 a16.68 16.68 0 1 0 33.36 0 a16.68 16.68 0 1 0 -33.36 0z" stroke="#d3b714"></path><path d="M1207.22 478.82a54.24 54.24 0 1 0 1.6 108.47z" stroke="#037b0b"></path><path d="M129.31 503.66a4.26 4.26 0 1 0 8.52-0.04z" stroke="#e73635"></path><path d="M1406.58 68.27a0.28 0.28 0 1 0-0.56 0.09z" fill="#e73635"></path><path d="M188.63 419.4a55.73 55.73 0 1 0-109.93 18.4z" stroke="#e73635"></path><path d="M1133.43 140.02 a44.06 44.06 0 1 0 88.12 0 a44.06 44.06 0 1 0 -88.12 0z" fill="#d3b714"></path><path d="M122.99 424.51 a9.23 9.23 0 1 0 18.46 0 a9.23 9.23 0 1 0 -18.46 0z" stroke="#e73635"></path><path d="M1029.71 514.38a47.26 47.26 0 1 0-92.7-18.45z" fill="#037b0b"></path><path d="M1212.63 89L1249.72 89L1249.72 126.09L1212.63 126.09z" stroke="#e73635"></path><path d="M43.17 509.27a2.48 2.48 0 1 0 0.76 4.9z" stroke="#e73635"></path><path d="M875.01 325.54L913.03 325.54L913.03 363.56L875.01 363.56z" fill="#037b0b"></path><path d="M71.88 372.02L114.94 372.02L114.94 414.51L71.88 414.51z" stroke="#d3b714"></path><path d="M752.72 229.06L764.6 229.06L764.6 245.94L752.72 245.94z" stroke="#037b0b"></path><path d="M47.81 485.02a49.42 49.42 0 1 0 66.9-72.76z" stroke="#037b0b"></path><path d="M716.5 122.84L748.45 122.84L748.45 154.79L716.5 154.79z" fill="#d3b714"></path><path d="M1002.91 125.75L1045.63 125.75L1045.63 175.62L1002.91 175.62z" stroke="#d3b714"></path><path d="M384.41 67.5a6.72 6.72 0 1 0 7.96 10.83z" stroke="#d3b714"></path><path d="M731.27 284.31L786.15 284.31L786.15 339.19L731.27 339.19z" stroke="#e73635"></path><path d="M184.66 81.67L188.92 81.67L188.92 85.93L184.66 85.93z" fill="#037b0b"></path><path d="M481.39 257.48L482.06 257.48L482.06 258.15L481.39 258.15z" stroke="#d3b714"></path><path d="M278.34 366.44L288.19 366.44L288.19 415.22L278.34 415.22z" fill="#037b0b"></path><path d="M713.64 220.81a25.38 25.38 0 1 0 3.78 50.62z" stroke="#d3b714"></path><path d="M1078.38 183.15 a48.29 48.29 0 1 0 96.58 0 a48.29 48.29 0 1 0 -96.58 0z" stroke="#037b0b"></path><path d="M208.7 400.02L228.37 400.02L228.37 419.69L208.7 419.69z" stroke="#d3b714"></path><path d="M1144.76 114.25L1187.26 114.25L1187.26 156.75L1144.76 156.75z" fill="#d3b714"></path></g><defs><mask id="SvgjsMask1016"><rect width="1440" height="560" fill="#ffffff"></rect></mask></defs></svg>