<svg xmlns="http://www.w3.org/2000/svg" version="1.1" xmlns:xlink="http://www.w3.org/1999/xlink" xmlns:svgjs="http://svgjs.com/svgjs" width="1440" height="560" preserveAspectRatio="none" viewBox="0 0 1440 560"><g mask="url(&quot;#SvgjsMask1039&quot;)" fill="none"><rect width="1440" height="560" x="0" y="0" fill="#0e2a47"></rect><path d="M654.89 80L676.96 80L676.96 102.07L654.89 102.07z" stroke="#037b0b"></path><path d="M830.55 309.33L874.15 309.33L874.15 352.93L830.55 352.93z" stroke="#d3b714"></path><path d="M1388.38 548.68 a31.27 31.27 0 1 0 62.54 0 a31.27 31.27 0 1 0 -62.54 0z" fill="#d3b714"></path><path d="M250.1 521.15 a23.15 23.15 0 1 0 46.3 0 a23.15 23.15 0 1 0 -46.3 0z" fill="#d3b714"></path><path d="M125.75 331.92 a26.07 26.07 0 1 0 52.14 0 a26.07 26.07 0 1 0 -52.14 0z" fill="#037b0b"></path><path d="M44.21 114.99a14.64 14.64 0 1 0 3.89-29.02z" stroke="#037b0b"></path><path d="M807.17 1.91 a49.6 49.6 0 1 0 99.2 0 a49.6 49.6 0 1 0 -99.2 0z" stroke="#e73635"></path><path d="M267.7 237.75L301.46 237.75L301.46 241.63L267.7 241.63z" fill="#d3b714"></path><path d="M933.6 371.97L978.35 371.97L978.35 412.37L933.6 412.37z" fill="#037b0b"></path><path d="M531.74 529.79 a24.21 24.21 0 1 0 48.42 0 a24.21 24.21 0 1 0 -48.42 0z" fill="#037b0b"></path><path d="M603.25 283.07L617.37 283.07L617.37 298.16L603.25 298.16z" stroke="#d3b714"></path><path d="M1143.34 279.6L1172.61 279.6L1172.61 308.87L1143.34 308.87z" fill="#037b0b"></path><path d="M337.4 494.87 a5.07 5.07 0 1 0 10.14 0 a5.07 5.07 0 1 0 -10.14 0z" fill="#e73635"></path><path d="M745.24 70.16L764.88 70.16L764.88 89.8L745.24 89.8z" fill="#d3b714"></path><path d="M1146.99 168.56L1200.76 168.56L1200.76 187.61L1146.99 187.61z" fill="#d3b714"></path><path d="M779.52 199.9a14.72 14.72 0 1 0 29.28-3.12z" fill="#d3b714"></path><path d="M597.44 326.73L617.22 326.73L617.22 346.51L597.44 346.51z" fill="#e73635"></path><path d="M1393.82 232.62a20.65 20.65 0 1 0-40.34-8.85z" stroke="#e73635"></path><path d="M605.55 479.09a12.01 12.01 0 1 0-20.18-13.03z" fill="#037b0b"></path><path d="M386.71 343.63a49.84 49.84 0 1 0-44.62 89.13z" fill="#d3b714"></path><path d="M621.8 476.68L669.98 476.68L669.98 524.86L621.8 524.86z" stroke="#d3b714"></path><path d="M312.93 497.26 a20.3 20.3 0 1 0 40.6 0 a20.3 20.3 0 1 0 -40.6 0z" stroke="#037b0b"></path><path d="M368.29 149L396.83 149L396.83 177.54L368.29 177.54z" stroke="#e73635"></path><path d="M700.68 539.1 a11.51 11.51 0 1 0 23.02 0 a11.51 11.51 0 1 0 -23.02 0z" fill="#037b0b"></path><path d="M663.89 514.95 a5.47 5.47 0 1 0 10.94 0 a5.47 5.47 0 1 0 -10.94 0z" stroke="#037b0b"></path><path d="M377.36 330.68 a50.06 50.06 0 1 0 100.12 0 a50.06 50.06 0 1 0 -100.12 0z" fill="#037b0b"></path><path d="M503.08 186.17L519.77 186.17L519.77 210.02L503.08 210.02z" fill="#037b0b"></path><path d="M284.05 35.33 a7.55 7.55 0 1 0 15.1 0 a7.55 7.55 0 1 0 -15.1 0z" stroke="#e73635"></path><path d="M327.59 150.69L382.85 150.69L382.85 171.6L327.59 171.6z" stroke="#d3b714"></path><path d="M-31.37 492.31 a46.39 46.39 0 1 0 92.78 0 a46.39 46.39 0 1 0 -92.78 0z" stroke="#037b0b"></path><path d="M688.04 29.84 a0.64 0.64 0 1 0 1.28 0 a0.64 0.64 0 1 0 -1.28 0z" fill="#037b0b"></path><path d="M202.08 470.8L244.06 470.8L244.06 511.89L202.08 511.89z" stroke="#d3b714"></path><path d="M199.43 121.78a2.6 2.6 0 1 0-3.23-4.08z" stroke="#d3b714"></path></g><defs><mask id="SvgjsMask1039"><rect width="1440" height="560" fill="#ffffff"></rect></mask></defs></svg>