<svg xmlns="http://www.w3.org/2000/svg" version="1.1" xmlns:xlink="http://www.w3.org/1999/xlink" xmlns:svgjs="http://svgjs.com/svgjs" width="1440" height="560" preserveAspectRatio="none" viewBox="0 0 1440 560"><g mask="url(&quot;#SvgjsMask1026&quot;)" fill="none"><rect width="1440" height="560" x="0" y="0" fill="#0e2a47"></rect><path d="M947.57 284.35L954.72 284.35L954.72 291.5L947.57 291.5z" fill="#d3b714"></path><path d="M0.33 389.76L54.07 389.76L54.07 443.5L0.33 443.5z" fill="#e73635"></path><path d="M665.04 352.36L669.19 352.36L669.19 356.51L665.04 356.51z" fill="#037b0b"></path><path d="M455.99 105.2L484.73 105.2L484.73 115.69L455.99 115.69z" stroke="#e73635"></path><path d="M1334.48 418.29 a44.9 44.9 0 1 0 89.8 0 a44.9 44.9 0 1 0 -89.8 0z" stroke="#d3b714"></path><path d="M1247.02 291.71L1252.67 291.71L1252.67 297.36L1247.02 297.36z" fill="#037b0b"></path><path d="M55.69 319.88L98.5 319.88L98.5 362.69L55.69 362.69z" stroke="#d3b714"></path><path d="M408.99 100.07L416.07 100.07L416.07 153.24L408.99 153.24z" fill="#d3b714"></path><path d="M400.53 130.93L453.04 130.93L453.04 183.16L400.53 183.16z" stroke="#e73635"></path><path d="M762.57 284.13 a8.99 8.99 0 1 0 17.98 0 a8.99 8.99 0 1 0 -17.98 0z" fill="#e73635"></path><path d="M764.35 355.24L782.66 355.24L782.66 398.22L764.35 398.22z" fill="#037b0b"></path><path d="M1050.68 9.4a5.2 5.2 0 1 0 2.98-9.97z" stroke="#d3b714"></path><path d="M774.77 359.85L788.15 359.85L788.15 367.97L774.77 367.97z" fill="#037b0b"></path><path d="M310.97 352.44L353.99 352.44L353.99 395.46L310.97 395.46z" fill="#037b0b"></path><path d="M696.15 479.52a19.45 19.45 0 1 0 27.66 27.36z" stroke="#d3b714"></path><path d="M401.72 353.18 a7.03 7.03 0 1 0 14.06 0 a7.03 7.03 0 1 0 -14.06 0z" fill="#037b0b"></path><path d="M1311.47 70.11a46.83 46.83 0 1 0-84.94 39.47z" stroke="#d3b714"></path><path d="M620.68 137.94 a5.89 5.89 0 1 0 11.78 0 a5.89 5.89 0 1 0 -11.78 0z" stroke="#d3b714"></path><path d="M769.61 229.33a15.98 15.98 0 1 0 29.92 11.24z" fill="#037b0b"></path><path d="M548.7 265.66a22.46 22.46 0 1 0 35.47 27.56z" fill="#d3b714"></path><path d="M570.16 348.24L610.42 348.24L610.42 388.5L570.16 388.5z" fill="#037b0b"></path><path d="M1330.32 440.17L1383.89 440.17L1383.89 494.71L1330.32 494.71z" fill="#d3b714"></path><path d="M27.16 178.3L40.14 178.3L40.14 215.34L27.16 215.34z" stroke="#037b0b"></path><path d="M525.21 402.6L540.8 402.6L540.8 434L525.21 434z" stroke="#e73635"></path><path d="M921.16 338.27a48.5 48.5 0 1 0 79.87 55.04z" stroke="#037b0b"></path><path d="M1112.12 552.19 a19.04 19.04 0 1 0 38.08 0 a19.04 19.04 0 1 0 -38.08 0z" stroke="#037b0b"></path><path d="M39.35 109.36L77.7 109.36L77.7 147.71L39.35 147.71z" fill="#d3b714"></path><path d="M554.33 242.8L595.97 242.8L595.97 284.44L554.33 284.44z" fill="#037b0b"></path><path d="M692.9 523.37a22.27 22.27 0 1 0-10.77-43.22z" stroke="#037b0b"></path><path d="M1078.99 345.02a36.35 36.35 0 1 0 5.39-72.5z" stroke="#037b0b"></path><path d="M137.74 179.56L156.51 179.56L156.51 198.33L137.74 198.33z" stroke="#037b0b"></path><path d="M1434.44 156.36a3.73 3.73 0 1 0 2.2 7.13z" fill="#e73635"></path><path d="M536.07 43.58L568.29 43.58L568.29 46.06L536.07 46.06z" stroke="#e73635"></path></g><defs><mask id="SvgjsMask1026"><rect width="1440" height="560" fill="#ffffff"></rect></mask></defs></svg>