<svg xmlns="http://www.w3.org/2000/svg" version="1.1" xmlns:xlink="http://www.w3.org/1999/xlink" xmlns:svgjs="http://svgjs.com/svgjs" width="1440" height="560" preserveAspectRatio="none" viewBox="0 0 1440 560"><g mask="url(&quot;#SvgjsMask1006&quot;)" fill="none"><rect width="1440" height="560" x="0" y="0" fill="#0e2a47"></rect><path d="M806.36 549.25a49.63 49.63 0 1 0-47.53-87.14z" stroke="#d3b714"></path><path d="M1055.48 183.86L1061.23 183.86L1061.23 201.24L1055.48 201.24z" fill="#d3b714"></path><path d="M172.98 446.94 a11.37 11.37 0 1 0 22.74 0 a11.37 11.37 0 1 0 -22.74 0z" fill="#d3b714"></path><path d="M1245.74 147.61 a1.13 1.13 0 1 0 2.26 0 a1.13 1.13 0 1 0 -2.26 0z" stroke="#d3b714"></path><path d="M882.01 452.63L899.38 452.63L899.38 470L882.01 470z" fill="#e73635"></path><path d="M328.36 207.44 a14.92 14.92 0 1 0 29.84 0 a14.92 14.92 0 1 0 -29.84 0z" stroke="#037b0b"></path><path d="M354.04 181.15L377.98 181.15L377.98 205.09L354.04 205.09z" fill="#e73635"></path><path d="M844.49 29.67a18.62 18.62 0 1 0-37.08 3.46z" fill="#e73635"></path><path d="M607.23 273.54L610.52 273.54L610.52 276.83L607.23 276.83z" stroke="#e73635"></path><path d="M1069.56 533.57a7.97 7.97 0 1 0 7.42 14.11z" fill="#d3b714"></path><path d="M778.96 269.52L824.05 269.52L824.05 314.61L778.96 314.61z" stroke="#d3b714"></path><path d="M834.48 281.25 a33.7 33.7 0 1 0 67.4 0 a33.7 33.7 0 1 0 -67.4 0z" stroke="#d3b714"></path><path d="M1086.25 389.7 a18.64 18.64 0 1 0 37.28 0 a18.64 18.64 0 1 0 -37.28 0z" fill="#037b0b"></path><path d="M186.24 418.63 a6.99 6.99 0 1 0 13.98 0 a6.99 6.99 0 1 0 -13.98 0z" fill="#d3b714"></path><path d="M801.44 40.78L809.18 40.78L809.18 48.52L801.44 48.52z" stroke="#d3b714"></path><path d="M1203.8 240.73L1246.46 240.73L1246.46 276.52L1203.8 276.52z" stroke="#d3b714"></path><path d="M216.52 56.47 a19.09 19.09 0 1 0 38.18 0 a19.09 19.09 0 1 0 -38.18 0z" fill="#037b0b"></path><path d="M281.83 328.37L317.43 328.37L317.43 328.87L281.83 328.87z" fill="#e73635"></path><path d="M563.2 31.63L608.26 31.63L608.26 43.72L563.2 43.72z" stroke="#037b0b"></path><path d="M990.05 323.76a31.11 31.11 0 1 0 26.11-56.47z" stroke="#d3b714"></path><path d="M87.03 471.01L95.58 471.01L95.58 479.56L87.03 479.56z" stroke="#037b0b"></path><path d="M1017.08 57.45L1066.54 57.45L1066.54 106.91L1017.08 106.91z" stroke="#037b0b"></path><path d="M212.58 283.44 a19.9 19.9 0 1 0 39.8 0 a19.9 19.9 0 1 0 -39.8 0z" stroke="#e73635"></path><path d="M557.75 354.56 a43.34 43.34 0 1 0 86.68 0 a43.34 43.34 0 1 0 -86.68 0z" fill="#e73635"></path><path d="M492.61 52.12L502.26 52.12L502.26 61.77L492.61 61.77z" stroke="#e73635"></path><path d="M1358.45 71.68a1.64 1.64 0 1 0-1.2-3.05z" stroke="#037b0b"></path><path d="M997.73 520.67a33.14 33.14 0 1 0-55.86-35.68z" stroke="#d3b714"></path><path d="M923.13 439.42L976.85 439.42L976.85 493.14L923.13 493.14z" fill="#e73635"></path><path d="M184.15 481.73 a52.39 52.39 0 1 0 104.78 0 a52.39 52.39 0 1 0 -104.78 0z" fill="#e73635"></path><path d="M617.66 244.59L640.38 244.59L640.38 287.42L617.66 287.42z" fill="#d3b714"></path><path d="M318.57 482.78L345.85 482.78L345.85 510.06L318.57 510.06z" stroke="#037b0b"></path><path d="M599.92 60.65 a52.16 52.16 0 1 0 104.32 0 a52.16 52.16 0 1 0 -104.32 0z" stroke="#e73635"></path><path d="M451.45 270.7L480.72 270.7L480.72 299.97L451.45 299.97z" stroke="#d3b714"></path></g><defs><mask id="SvgjsMask1006"><rect width="1440" height="560" fill="#ffffff"></rect></mask></defs></svg>