<svg xmlns="http://www.w3.org/2000/svg" version="1.1" xmlns:xlink="http://www.w3.org/1999/xlink" xmlns:svgjs="http://svgjs.com/svgjs" width="1440" height="560" preserveAspectRatio="none" viewBox="0 0 1440 560"><g mask="url(&quot;#SvgjsMask1014&quot;)" fill="none"><rect width="1440" height="560" x="0" y="0" fill="#0e2a47"></rect><path d="M609.54 258.76 a53.83 53.83 0 1 0 107.66 0 a53.83 53.83 0 1 0 -107.66 0z" stroke="#037b0b"></path><path d="M115.98 508.53L167.15 508.53L167.15 559.7L115.98 559.7z" stroke="#d3b714"></path><path d="M456.17 290.23L460.5 290.23L460.5 300.74L456.17 300.74z" fill="#e73635"></path><path d="M509 223.3a53.21 53.21 0 1 0 62.13 86.4z" stroke="#d3b714"></path><path d="M1295.98 391.41L1339.32 391.41L1339.32 439.01L1295.98 439.01z" fill="#037b0b"></path><path d="M1422.7 353.19L1437.53 353.19L1437.53 358.13L1422.7 358.13z" fill="#e73635"></path><path d="M504.45 224.38a8.27 8.27 0 1 0-7.35 14.82z" fill="#d3b714"></path><path d="M1078.14 543.76 a5.47 5.47 0 1 0 10.94 0 a5.47 5.47 0 1 0 -10.94 0z" fill="#037b0b"></path><path d="M1344.46 293.85 a8 8 0 1 0 16 0 a8 8 0 1 0 -16 0z" fill="#037b0b"></path><path d="M1068 352.31 a47.91 47.91 0 1 0 95.82 0 a47.91 47.91 0 1 0 -95.82 0z" fill="#037b0b"></path><path d="M851.56 54.8a48.97 48.97 0 1 0-66.77-71.65z" fill="#d3b714"></path><path d="M1434.84 41.83L1463.79 41.83L1463.79 70.78L1434.84 70.78z" fill="#037b0b"></path><path d="M150.44 195.45 a45.74 45.74 0 1 0 91.48 0 a45.74 45.74 0 1 0 -91.48 0z" fill="#d3b714"></path><path d="M662.9 250.64L711.79 250.64L711.79 299.53L662.9 299.53z" stroke="#d3b714"></path><path d="M475.4 362.53L525.74 362.53L525.74 412.87L475.4 412.87z" stroke="#d3b714"></path><path d="M744.39 213.81L770.09 213.81L770.09 248.98L744.39 248.98z" stroke="#e73635"></path><path d="M222.83 553.54 a49.69 49.69 0 1 0 99.38 0 a49.69 49.69 0 1 0 -99.38 0z" fill="#037b0b"></path><path d="M1105.64 37.84a20.14 20.14 0 1 0 6.98-39.67z" stroke="#e73635"></path><path d="M427.95 283.99L444.9 283.99L444.9 292.44L427.95 292.44z" fill="#037b0b"></path><path d="M348.2 469.13L383.9 469.13L383.9 523.18L348.2 523.18z" stroke="#e73635"></path><path d="M541.19 487.15L559.53 487.15L559.53 539.24L541.19 539.24z" stroke="#e73635"></path><path d="M200.06 261.14L252.29 261.14L252.29 288.36L200.06 288.36z" fill="#e73635"></path><path d="M81.88 522.73a23.14 23.14 0 1 0-8.08 45.57z" fill="#d3b714"></path><path d="M290.3 223.45a25.47 25.47 0 1 0-14.6-48.81z" fill="#037b0b"></path><path d="M780.95 305.77a26.36 26.36 0 1 0 30.63-42.91z" fill="#d3b714"></path><path d="M1051.02 115.75 a0.61 0.61 0 1 0 1.22 0 a0.61 0.61 0 1 0 -1.22 0z" fill="#d3b714"></path><path d="M1187.23 574.38a24.33 24.33 0 1 0 30.36-38.02z" stroke="#e73635"></path><path d="M458.84 525.85a48.86 48.86 0 1 0-97.6-4.84z" stroke="#037b0b"></path><path d="M410.06 440.23L424.21 440.23L424.21 488.23L410.06 488.23z" stroke="#d3b714"></path><path d="M96.47 431.8L138.87 431.8L138.87 469.41L96.47 469.41z" stroke="#d3b714"></path><path d="M1048.86 324.37L1055.41 324.37L1055.41 330.92L1048.86 330.92z" stroke="#e73635"></path><path d="M286.56 144.98L305.26 144.98L305.26 187.82L286.56 187.82z" stroke="#037b0b"></path><path d="M1108.04 66.55L1110.28 66.55L1110.28 107.88L1108.04 107.88z" stroke="#e73635"></path></g><defs><mask id="SvgjsMask1014"><rect width="1440" height="560" fill="#ffffff"></rect></mask></defs></svg>