<svg xmlns="http://www.w3.org/2000/svg" version="1.1" xmlns:xlink="http://www.w3.org/1999/xlink" xmlns:svgjs="http://svgjs.com/svgjs" width="1440" height="560" preserveAspectRatio="none" viewBox="0 0 1440 560"><g mask="url(&quot;#SvgjsMask1008&quot;)" fill="none"><rect width="1440" height="560" x="0" y="0" fill="#0e2a47"></rect><path d="M278.27 558.77L284.36 558.77L284.36 564.86L278.27 564.86z" stroke="#037b0b"></path><path d="M55.65 114.67L92.36 114.67L92.36 134.21L55.65 134.21z" stroke="#e73635"></path><path d="M1394.65 144.65 a5.18 5.18 0 1 0 10.36 0 a5.18 5.18 0 1 0 -10.36 0z" stroke="#d3b714"></path><path d="M554.89 550.64L578.08 550.64L578.08 573.83L554.89 573.83z" fill="#e73635"></path><path d="M1034.34 20.65L1048.9 20.65L1048.9 43.51L1034.34 43.51z" fill="#037b0b"></path><path d="M509.29 242.07L510.2 242.07L510.2 247.47L509.29 247.47z" fill="#d3b714"></path><path d="M1128.06 92.35L1135.28 92.35L1135.28 107.26L1128.06 107.26z" stroke="#e73635"></path><path d="M803.94 186.76 a25.74 25.74 0 1 0 51.48 0 a25.74 25.74 0 1 0 -51.48 0z" fill="#e73635"></path><path d="M482.29 341.2L525.15 341.2L525.15 383.7L482.29 383.7z" stroke="#037b0b"></path><path d="M716.16 522.86 a16.63 16.63 0 1 0 33.26 0 a16.63 16.63 0 1 0 -33.26 0z" fill="#d3b714"></path><path d="M96.8 216.02 a40.25 40.25 0 1 0 80.5 0 a40.25 40.25 0 1 0 -80.5 0z" stroke="#e73635"></path><path d="M498.09 365.21L546.48 365.21L546.48 413.6L498.09 413.6z" stroke="#d3b714"></path><path d="M935.69 274.4L938.18 274.4L938.18 276.89L935.69 276.89z" fill="#e73635"></path><path d="M1232.22 522.11a10.55 10.55 0 1 0-1.45 21.05z" fill="#037b0b"></path><path d="M378.64 400.13L429.04 400.13L429.04 450.53L378.64 450.53z" stroke="#037b0b"></path><path d="M1324.85 329.97L1361.44 329.97L1361.44 354L1324.85 354z" fill="#037b0b"></path><path d="M1351.27 239.39a1.99 1.99 0 1 0-3.29-2.23z" fill="#037b0b"></path><path d="M998.44 149a8.31 8.31 0 1 0 1.32-16.57z" fill="#037b0b"></path><path d="M1056.89 147.14 a11.8 11.8 0 1 0 23.6 0 a11.8 11.8 0 1 0 -23.6 0z" stroke="#e73635"></path><path d="M1275.05 454.59 a35.27 35.27 0 1 0 70.54 0 a35.27 35.27 0 1 0 -70.54 0z" fill="#e73635"></path><path d="M536.29 232.35a2.59 2.59 0 1 0 4.92 1.64z" fill="#d3b714"></path><path d="M525.74 160.3 a43.96 43.96 0 1 0 87.92 0 a43.96 43.96 0 1 0 -87.92 0z" fill="#e73635"></path><path d="M995.17 367.66L1014.59 367.66L1014.59 387.08L995.17 387.08z" fill="#e73635"></path><path d="M296.66 197.33 a2.45 2.45 0 1 0 4.9 0 a2.45 2.45 0 1 0 -4.9 0z" stroke="#037b0b"></path><path d="M616.88 463.09L668.02 463.09L668.02 473.02L616.88 473.02z" stroke="#e73635"></path><path d="M917.26 539.96L950.52 539.96L950.52 554.61L917.26 554.61z" fill="#037b0b"></path><path d="M143.83 453.93L144.26 453.93L144.26 454.36L143.83 454.36z" stroke="#e73635"></path><path d="M1128.59 289.72 a21.03 21.03 0 1 0 42.06 0 a21.03 21.03 0 1 0 -42.06 0z" stroke="#037b0b"></path><path d="M462.6 205.94L464.26 205.94L464.26 207.6L462.6 207.6z" fill="#037b0b"></path><path d="M296.53 309.61L338.69 309.61L338.69 355.2L296.53 355.2z" stroke="#d3b714"></path><path d="M73.12 360.85L98.1 360.85L98.1 385.83L73.12 385.83z" fill="#d3b714"></path><path d="M1276.97 417.99L1283.01 417.99L1283.01 460.91L1276.97 460.91z" fill="#e73635"></path><path d="M676.21 163.06L681.42 163.06L681.42 168.27L676.21 168.27z" fill="#037b0b"></path></g><defs><mask id="SvgjsMask1008"><rect width="1440" height="560" fill="#ffffff"></rect></mask></defs></svg>