<svg xmlns="http://www.w3.org/2000/svg" version="1.1" xmlns:xlink="http://www.w3.org/1999/xlink" xmlns:svgjs="http://svgjs.com/svgjs" width="1440" height="560" preserveAspectRatio="none" viewBox="0 0 1440 560"><g mask="url(&quot;#SvgjsMask1020&quot;)" fill="none"><rect width="1440" height="560" x="0" y="0" fill="#0e2a47"></rect><path d="M1014.39 116.88L1047.51 116.88L1047.51 150L1014.39 150z" fill="#037b0b"></path><path d="M128.05 88.58 a40.65 40.65 0 1 0 81.3 0 a40.65 40.65 0 1 0 -81.3 0z" fill="#e73635"></path><path d="M528.64 268.16L543.23 268.16L543.23 282.75L528.64 282.75z" fill="#e73635"></path><path d="M1162.19 165.79a15.94 15.94 0 1 0-8.98 30.59z" fill="#d3b714"></path><path d="M987.42 288.42a22.51 22.51 0 1 0-23.92 38.13z" stroke="#e73635"></path><path d="M1405.31 373.42L1417.79 373.42L1417.79 421.34L1405.31 421.34z" stroke="#037b0b"></path><path d="M242.54 137.73a18.17 18.17 0 1 0-6.26-35.8z" stroke="#d3b714"></path><path d="M1407.72 375.44a22.47 22.47 0 1 0-44.89-2.03z" fill="#037b0b"></path><path d="M985.18 303.3L1002.85 303.3L1002.85 320.97L985.18 320.97z" stroke="#e73635"></path><path d="M605.11 514.75 a15.12 15.12 0 1 0 30.24 0 a15.12 15.12 0 1 0 -30.24 0z" stroke="#e73635"></path><path d="M861.98 358.61L867.21 358.61L867.21 408.46L861.98 408.46z" stroke="#037b0b"></path><path d="M975.05 116.84 a44.59 44.59 0 1 0 89.18 0 a44.59 44.59 0 1 0 -89.18 0z" fill="#e73635"></path><path d="M790.7 515.56a10.3 10.3 0 1 0 14.74-14.39z" fill="#d3b714"></path><path d="M56.18 483.07a23.52 23.52 0 1 0-32.6-33.91z" stroke="#037b0b"></path><path d="M927.22 273.12L976.07 273.12L976.07 321.97L927.22 321.97z" stroke="#d3b714"></path><path d="M1290 195.2L1329.83 195.2L1329.83 246.38L1290 246.38z" stroke="#e73635"></path><path d="M-10.58 213.87 a37.75 37.75 0 1 0 75.5 0 a37.75 37.75 0 1 0 -75.5 0z" fill="#037b0b"></path><path d="M1228.26 57.34L1249.98 57.34L1249.98 79.06L1228.26 79.06z" stroke="#e73635"></path><path d="M1385.14 526.24L1400.57 526.24L1400.57 541.67L1385.14 541.67z" fill="#d3b714"></path><path d="M1198.7 283.65L1234.49 283.65L1234.49 327L1198.7 327z" stroke="#d3b714"></path><path d="M1084.73 181.14a48 48 0 1 0 91.46 29.14z" stroke="#d3b714"></path><path d="M290.18 207.29 a36.36 36.36 0 1 0 72.72 0 a36.36 36.36 0 1 0 -72.72 0z" stroke="#d3b714"></path><path d="M351.96 115.72a50.34 50.34 0 1 0-65.58 76.39z" fill="#037b0b"></path><path d="M1045.94 484.44L1074.63 484.44L1074.63 513.13L1045.94 513.13z" stroke="#e73635"></path><path d="M949.98 501.88a31.54 31.54 0 1 0 57.12 26.78z" fill="#d3b714"></path><path d="M354.52 93.05 a14.69 14.69 0 1 0 29.38 0 a14.69 14.69 0 1 0 -29.38 0z" fill="#e73635"></path><path d="M598.76 435.95L627.38 435.95L627.38 485.57L598.76 485.57z" fill="#037b0b"></path><path d="M574 11.54L629.4 11.54L629.4 13L574 13z" fill="#d3b714"></path><path d="M1134.06 221.66L1137.01 221.66L1137.01 224.61L1134.06 224.61z" fill="#d3b714"></path><path d="M1180.15 235a42.57 42.57 0 1 0-79.51-30.45z" fill="#e73635"></path><path d="M564.31 207.42L599.85 207.42L599.85 216.83L564.31 216.83z" fill="#037b0b"></path><path d="M172.28 223.02L178.4 223.02L178.4 275.93L172.28 275.93z" fill="#037b0b"></path><path d="M1405.52 404.73a1.53 1.53 0 1 0-1.45 2.69z" fill="#e73635"></path></g><defs><mask id="SvgjsMask1020"><rect width="1440" height="560" fill="#ffffff"></rect></mask></defs></svg>