<svg xmlns="http://www.w3.org/2000/svg" version="1.1" xmlns:xlink="http://www.w3.org/1999/xlink" xmlns:svgjs="http://svgjs.com/svgjs" width="1440" height="560" preserveAspectRatio="none" viewBox="0 0 1440 560"><g mask="url(&quot;#SvgjsMask1013&quot;)" fill="none"><rect width="1440" height="560" x="0" y="0" fill="#0e2a47"></rect><path d="M1081.23 93.25 a15.53 15.53 0 1 0 31.06 0 a15.53 15.53 0 1 0 -31.06 0z" stroke="#e73635"></path><path d="M949.06 148.8 a22.17 22.17 0 1 0 44.34 0 a22.17 22.17 0 1 0 -44.34 0z" stroke="#037b0b"></path><path d="M1435.09 135.31L1490.22 135.31L1490.22 182.14L1435.09 182.14z" fill="#d3b714"></path><path d="M698.45 471.51L728.48 471.51L728.48 496.06L698.45 496.06z" stroke="#037b0b"></path><path d="M98.18 192.59 a2.02 2.02 0 1 0 4.04 0 a2.02 2.02 0 1 0 -4.04 0z" fill="#d3b714"></path><path d="M1300.09 73.03a36.9 36.9 0 1 0-55.18 49.01z" stroke="#d3b714"></path><path d="M630.43 228.84 a2.47 2.47 0 1 0 4.94 0 a2.47 2.47 0 1 0 -4.94 0z" stroke="#d3b714"></path><path d="M1379.77 377.26a36.07 36.07 0 1 0-14.84 70.6z" fill="#d3b714"></path><path d="M1006.78 483.99a55.18 55.18 0 1 0 107.36-25.54z" stroke="#e73635"></path><path d="M164.96 551.24L168.32 551.24L168.32 554.6L164.96 554.6z" stroke="#d3b714"></path><path d="M979.12 396.31L1005.2 396.31L1005.2 422.39L979.12 422.39z" fill="#d3b714"></path><path d="M613.23 120.12L648.21 120.12L648.21 155.1L613.23 155.1z" fill="#037b0b"></path><path d="M1371.52 175.45L1389.85 175.45L1389.85 220.46L1371.52 220.46z" fill="#e73635"></path><path d="M840.76 26.46L844.38 26.46L844.38 66.32L840.76 66.32z" stroke="#037b0b"></path><path d="M616.2 80.59L648.5 80.59L648.5 95.28L616.2 95.28z" stroke="#e73635"></path><path d="M698.31 511.42L722.37 511.42L722.37 535.48L698.31 535.48z" fill="#d3b714"></path><path d="M1176.72 519.9L1193.55 519.9L1193.55 524.73L1176.72 524.73z" stroke="#d3b714"></path><path d="M367.71 450.76 a16.61 16.61 0 1 0 33.22 0 a16.61 16.61 0 1 0 -33.22 0z" fill="#d3b714"></path><path d="M812.92 537.2L838.23 537.2L838.23 562.51L812.92 562.51z" stroke="#d3b714"></path><path d="M791.23 119.77 a20.37 20.37 0 1 0 40.74 0 a20.37 20.37 0 1 0 -40.74 0z" fill="#037b0b"></path><path d="M117.8 4.22a2.18 2.18 0 1 0-2.91-3.25z" fill="#037b0b"></path><path d="M964.32 332.44a51.76 51.76 0 1 0-72.68-73.71z" fill="#d3b714"></path><path d="M665.15 343.81L706.96 343.81L706.96 370.49L665.15 370.49z" stroke="#e73635"></path><path d="M1261.37 10.42L1267.35 10.42L1267.35 16.4L1261.37 16.4z" stroke="#037b0b"></path><path d="M1212.72 17.95L1249.9 17.95L1249.9 62.57L1212.72 62.57z" stroke="#d3b714"></path><path d="M488.15 348.93 a53.15 53.15 0 1 0 106.3 0 a53.15 53.15 0 1 0 -106.3 0z" stroke="#e73635"></path><path d="M655.48 180.09 a16.66 16.66 0 1 0 33.32 0 a16.66 16.66 0 1 0 -33.32 0z" stroke="#d3b714"></path><path d="M603.8 466.65a18.38 18.38 0 1 0-14.42-33.81z" stroke="#e73635"></path><path d="M486.66 350.48L508.75 350.48L508.75 377.32L486.66 377.32z" fill="#d3b714"></path><path d="M11.73 433.28 a47.69 47.69 0 1 0 95.38 0 a47.69 47.69 0 1 0 -95.38 0z" stroke="#d3b714"></path><path d="M1283.28 420.08L1287.28 420.08L1287.28 461.89L1283.28 461.89z" fill="#037b0b"></path><path d="M135.57 293.96 a28.29 28.29 0 1 0 56.58 0 a28.29 28.29 0 1 0 -56.58 0z" stroke="#e73635"></path><path d="M307.87 551.1L360.87 551.1L360.87 604.1L307.87 604.1z" fill="#e73635"></path></g><defs><mask id="SvgjsMask1013"><rect width="1440" height="560" fill="#ffffff"></rect></mask></defs></svg>