<svg xmlns="http://www.w3.org/2000/svg" version="1.1" xmlns:xlink="http://www.w3.org/1999/xlink" xmlns:svgjs="http://svgjs.com/svgjs" width="1440" height="560" preserveAspectRatio="none" viewBox="0 0 1440 560"><g mask="url(&quot;#SvgjsMask1002&quot;)" fill="none"><rect width="1440" height="560" x="0" y="0" fill="#0e2a47"></rect><path d="M1323.33 64.81a26.81 26.81 0 1 0 47.72-24.45z" stroke="#e73635"></path><path d="M124.67 382.16a41.37 41.37 0 1 0-41.42 71.62z" stroke="#d3b714"></path><path d="M309.13 242.41L352.61 242.41L352.61 285.89L309.13 285.89z" fill="#d3b714"></path><path d="M419.07 566.33a39.31 39.31 0 1 0 3.27-78.55z" fill="#d3b714"></path><path d="M1178 477.62L1223.36 477.62L1223.36 507.25L1178 507.25z" fill="#e73635"></path><path d="M51.69 26.87L58.35 26.87L58.35 33.53L51.69 33.53z" fill="#e73635"></path><path d="M1322.28 331.87L1344.81 331.87L1344.81 354.4L1322.28 354.4z" stroke="#d3b714"></path><path d="M1043.84 455.75 a24.67 24.67 0 1 0 49.34 0 a24.67 24.67 0 1 0 -49.34 0z" fill="#e73635"></path><path d="M680.19 427.61 a24.72 24.72 0 1 0 49.44 0 a24.72 24.72 0 1 0 -49.44 0z" fill="#037b0b"></path><path d="M467.16 142.78 a21.9 21.9 0 1 0 43.8 0 a21.9 21.9 0 1 0 -43.8 0z" stroke="#e73635"></path><path d="M804.4 6.42 a53.31 53.31 0 1 0 106.62 0 a53.31 53.31 0 1 0 -106.62 0z" stroke="#037b0b"></path><path d="M945.71 439.8a20.89 20.89 0 1 0-41.6 3.91z" stroke="#037b0b"></path><path d="M1436.29 302.22L1460.87 302.22L1460.87 326.8L1436.29 326.8z" fill="#037b0b"></path><path d="M1315.67 227.66L1324.01 227.66L1324.01 236L1315.67 236z" fill="#037b0b"></path><path d="M536.57 392.01 a21.55 21.55 0 1 0 43.1 0 a21.55 21.55 0 1 0 -43.1 0z" stroke="#e73635"></path><path d="M670.99 170.6 a34.1 34.1 0 1 0 68.2 0 a34.1 34.1 0 1 0 -68.2 0z" stroke="#037b0b"></path><path d="M471.85 413.92a37.23 37.23 0 1 0 50.94-54.3z" fill="#d3b714"></path><path d="M116.66 430.75a35.13 35.13 0 1 0 67.76-18.58z" fill="#e73635"></path><path d="M515.8 266.47 a41.8 41.8 0 1 0 83.6 0 a41.8 41.8 0 1 0 -83.6 0z" fill="#e73635"></path><path d="M994.04 457.74a50.1 50.1 0 1 0-83.22 55.81z" fill="#d3b714"></path><path d="M830.21 504.55L831.32 504.55L831.32 505.66L830.21 505.66z" stroke="#e73635"></path><path d="M724.33 478.29a4.78 4.78 0 1 0 9.3 2.22z" fill="#e73635"></path><path d="M270.89-9.54a18.59 18.59 0 1 0-25.57 26.99z" fill="#e73635"></path><path d="M65.43 427.08 a6.32 6.32 0 1 0 12.64 0 a6.32 6.32 0 1 0 -12.64 0z" stroke="#037b0b"></path><path d="M356.96 510.52L366.96 510.52L366.96 520.52L356.96 520.52z" fill="#d3b714"></path><path d="M1053.15 426.57a35.8 35.8 0 1 0-71.22-7.3z" fill="#e73635"></path><path d="M857.49 76.75L863.11 76.75L863.11 100.69L857.49 100.69z" fill="#d3b714"></path><path d="M645.25 166.53 a5.57 5.57 0 1 0 11.14 0 a5.57 5.57 0 1 0 -11.14 0z" fill="#037b0b"></path><path d="M573.16 442.05L605.77 442.05L605.77 474.66L573.16 474.66z" stroke="#e73635"></path><path d="M1080.92 178.63 a18.61 18.61 0 1 0 37.22 0 a18.61 18.61 0 1 0 -37.22 0z" stroke="#e73635"></path><path d="M879.55 141.33a37.15 37.15 0 1 0 70.8 22.54z" fill="#e73635"></path><path d="M1037.53 548.16L1077.37 548.16L1077.37 572.26L1037.53 572.26z" stroke="#037b0b"></path><path d="M135.09 536.45 a3.62 3.62 0 1 0 7.24 0 a3.62 3.62 0 1 0 -7.24 0z" fill="#037b0b"></path></g><defs><mask id="SvgjsMask1002"><rect width="1440" height="560" fill="#ffffff"></rect></mask></defs></svg>